<?xml version="1.0" encoding="UTF-8" standalone="no"?>
<!DOCTYPE svg PUBLIC "-//W3C//DTD SVG 1.1//EN" "http://www.w3.org/Graphics/SVG/1.1/DTD/svg11.dtd">
<svg width="100%" height="100%" viewBox="0 0 600 600" version="1.1" xmlns="http://www.w3.org/2000/svg" xmlns:xlink="http://www.w3.org/1999/xlink" xml:space="preserve" xmlns:serif="http://www.serif.com/" style="fill-rule:evenodd;clip-rule:evenodd;stroke-linejoin:round;stroke-miterlimit:2;">
    <g transform="matrix(1.12389,0,0,1.0125,-23.7859,-7.5)">
        <path d="M555.026,125.926L555.026,481.481C555.026,546.894 507.183,600 448.254,600L127.937,600C69.007,600 21.164,546.894 21.164,481.481L21.164,125.926C21.164,60.514 69.007,7.407 127.937,7.407L448.254,7.407C507.183,7.407 555.026,60.514 555.026,125.926Z" style="fill:white;"/>
    </g>
    <g transform="matrix(0.46064,0,0,0.46064,144.869,56.3915)">
        <g transform="matrix(1,0,0,1,345.72,16.6085)">
            <path d="M0,0C2.155,0.772 4.311,1.543 6.466,2.315C8.933,3.229 11.399,4.146 13.863,5.066C15.228,5.573 16.592,6.08 17.957,6.587C21.64,7.955 25.321,9.327 29.002,10.701C31.333,11.57 33.664,12.438 35.995,13.305C61.674,22.862 87.322,32.501 112.957,42.176C115.837,43.263 118.717,44.35 121.598,45.438C122.311,45.707 123.025,45.976 123.76,46.254C140.768,52.673 157.79,59.057 174.813,65.438C176.318,66.002 177.823,66.566 179.328,67.13C185.36,69.391 191.391,71.652 197.423,73.912C207.953,77.858 218.483,81.805 229.012,85.754C230.125,86.171 230.125,86.171 231.261,86.597C235.008,88.003 238.756,89.408 242.503,90.814C249.252,93.345 256.001,95.875 262.75,98.406C266.5,99.812 270.25,101.219 274,102.625C275.5,103.188 332.5,124.563 359.5,134.688C360.243,134.966 360.985,135.244 361.75,135.531C363.25,136.094 364.75,136.656 366.25,137.219C370.001,138.625 373.752,140.032 377.504,141.439C384.238,143.964 390.972,146.49 397.707,149.015C401.436,150.414 405.165,151.812 408.895,153.211C409.634,153.488 410.373,153.765 411.135,154.051C421.947,158.106 432.759,162.159 443.572,166.211C450.611,168.848 457.649,171.487 464.688,174.125C465.443,174.408 466.198,174.691 466.975,174.983C492.666,184.613 518.343,194.28 544,204L544,206C514.886,216.983 485.771,227.964 456.637,238.895C455.892,239.174 455.148,239.453 454.381,239.741C446.171,242.822 437.96,245.898 429.746,248.967C426.771,250.079 423.795,251.192 420.82,252.305C420.088,252.579 419.356,252.852 418.601,253.135C407.994,257.104 397.41,261.132 386.837,265.194C382.381,266.904 377.92,268.604 373.46,270.304C369.26,271.906 365.067,273.524 360.878,275.155C358.927,275.911 356.973,276.659 355.017,277.402C352.652,278.301 350.292,279.214 347.94,280.143C341.496,282.562 336.735,283.617 330,282C328.753,281.712 327.505,281.424 326.22,281.127C324.968,280.777 323.716,280.427 322.426,280.066C320.964,279.665 319.502,279.265 318.04,278.865C317.273,278.653 316.507,278.442 315.717,278.223C293.633,272.153 271.328,267.266 248.911,262.606C246.106,262.022 243.303,261.435 240.499,260.847C186.791,249.616 132.657,239.623 78.438,231.188C76.982,230.961 76.982,230.961 75.498,230.73C61.696,228.596 47.863,226.694 34,225C32.854,224.858 31.709,224.715 30.528,224.569C24.709,223.96 19.032,224.054 13.199,224.289C10.832,224.37 8.465,224.45 6.098,224.529C4.481,224.593 2.865,224.676 1.25,224.775C-4.012,225.085 -8.846,225.209 -14,224C-16.757,221.415 -18.153,219.149 -19.718,215.726C-22.115,210.629 -26.352,208.196 -31.344,205.941C-38.832,203.276 -45.744,203.328 -53.152,206.238C-63.926,211.392 -69.905,216.856 -74.188,228.125C-73.94,231.913 -72.726,233.533 -70.152,236.258C-59.499,244.881 -47.198,246.345 -34,245C-29.656,244.105 -25.518,242.702 -21.355,241.191C-14.485,238.752 -10.313,239.33 -3.313,240.938C6.871,243.169 17.078,245.167 27.327,247.075C43.097,250.019 58.81,253.184 74.5,256.53C102.667,262.537 130.886,268.278 159.125,273.938C160.201,274.153 161.277,274.369 162.386,274.591C205.808,283.286 249.298,291.814 293,299C290.568,301.432 288.533,302.076 285.306,303.277C284.094,303.731 282.882,304.186 281.634,304.654C280.285,305.153 278.935,305.653 277.586,306.152C276.173,306.68 274.761,307.208 273.348,307.736C270.3,308.875 267.251,310.011 264.201,311.144C259.318,312.958 254.438,314.779 249.559,316.602C243.61,318.823 237.66,321.043 231.71,323.26C221.378,327.111 211.05,330.974 200.727,334.848C199.992,335.123 199.258,335.399 198.501,335.683C194.811,337.067 191.12,338.452 187.43,339.838C180.705,342.361 173.98,344.883 167.254,347.405C163.503,348.811 159.751,350.218 156,351.625C154.5,352.188 150.015,353.869 149.25,354.156C147,355 141.015,357.244 140.25,357.531C138.75,358.094 137.25,358.656 135.751,359.219C131.998,360.626 128.245,362.033 124.492,363.441C117.777,365.959 111.063,368.477 104.348,370.994C100.645,372.383 96.941,373.772 93.238,375.16C92.136,375.574 92.136,375.574 91.011,375.995C80.652,379.88 70.294,383.766 59.936,387.652C54.099,389.842 48.263,392.032 42.426,394.222C37.675,396.004 32.924,397.787 28.173,399.57C25.236,400.673 22.298,401.775 19.361,402.877C18.009,403.384 16.658,403.891 15.306,404.398C12.289,405.531 9.271,406.659 6.245,407.768C4.149,408.564 2.072,409.413 0.023,410.325C-5.831,412.835 -9.311,413.403 -15.308,411.12C-16.196,410.75 -17.085,410.381 -18,410C-20.154,409.224 -22.309,408.453 -24.466,407.685C-26.933,406.771 -29.399,405.854 -31.863,404.934C-33.228,404.427 -34.592,403.92 -35.957,403.413C-39.64,402.045 -43.321,400.673 -47.002,399.299C-49.333,398.43 -51.664,397.562 -53.995,396.695C-79.674,387.138 -105.322,377.499 -130.957,367.824C-133.837,366.737 -136.717,365.65 -139.598,364.563C-140.311,364.293 -141.025,364.024 -141.76,363.746C-158.768,357.327 -175.79,350.943 -192.813,344.563C-194.318,343.998 -195.823,343.434 -197.328,342.87C-203.36,340.609 -209.391,338.348 -215.423,336.088C-225.953,332.142 -236.483,328.195 -247.012,324.246C-247.754,323.968 -248.496,323.689 -249.261,323.403C-253.008,321.997 -256.756,320.592 -260.503,319.186C-267.252,316.655 -274.001,314.125 -280.75,311.594C-284.5,310.188 -288.25,308.781 -292,307.375C-293.5,306.812 -350.5,285.438 -377.5,275.313C-378.614,274.895 -378.614,274.895 -379.75,274.469C-381.25,273.906 -382.75,273.344 -384.25,272.781C-388.001,271.375 -391.752,269.968 -395.504,268.561C-402.238,266.036 -408.972,263.51 -415.707,260.985C-419.436,259.586 -423.165,258.188 -426.895,256.789C-427.634,256.512 -428.373,256.235 -429.135,255.949C-439.947,251.894 -450.759,247.841 -461.572,243.789C-468.611,241.152 -475.649,238.513 -482.688,235.875C-483.443,235.592 -484.198,235.309 -484.975,235.017C-510.666,225.387 -536.343,215.72 -562,206L-562,204C-527.073,190.825 -492.141,177.665 -457.188,164.563C-456.447,164.285 -455.707,164.008 -454.944,163.722C-448.155,161.177 -441.365,158.632 -434.576,156.088C-424.046,152.142 -413.517,148.195 -402.988,144.246C-402.246,143.968 -401.504,143.689 -400.739,143.403C-396.992,141.997 -393.244,140.592 -389.497,139.186C-382.748,136.655 -375.999,134.125 -369.25,131.594C-365.5,130.188 -361.75,128.781 -358,127.375C-356.5,126.812 -250.75,87.156 -200.5,68.313C-199.757,68.034 -199.015,67.756 -198.25,67.469C-196.75,66.906 -195.25,66.344 -193.75,65.781C-189.999,64.375 -186.248,62.968 -182.497,61.561C-175.759,59.035 -169.022,56.508 -162.284,53.982C-158.55,52.582 -154.816,51.181 -151.082,49.781C-150.342,49.504 -149.602,49.226 -148.84,48.94C-140.447,45.793 -132.054,42.645 -123.662,39.496C-122.499,39.06 -122.499,39.06 -121.313,38.615C-117.401,37.147 -113.49,35.679 -109.58,34.211C-101.942,31.344 -94.303,28.481 -86.66,25.628C-83.722,24.531 -80.785,23.434 -77.848,22.336C-77.133,22.069 -76.417,21.801 -75.681,21.526C-66.21,17.985 -56.769,14.374 -47.35,10.698C-43.215,9.089 -39.072,7.499 -34.929,5.906C-32.757,5.064 -30.589,4.211 -28.425,3.347C-25.493,2.176 -22.55,1.041 -19.602,-0.086C-18.349,-0.604 -18.349,-0.604 -17.071,-1.132C-10.483,-3.586 -6.41,-2.529 0,0Z" style="fill:url(#_Linear1);fill-rule:nonzero;"/>
        </g>
        <g transform="matrix(1,0,0,1,80.7196,349.608)">
            <path d="M0,0C3.173,1.106 6.345,2.214 9.516,3.322C10.85,3.787 10.85,3.787 12.211,4.262C19.905,6.951 27.546,9.765 35.172,12.641C36.559,13.162 37.945,13.682 39.332,14.203C42.274,15.308 45.216,16.414 48.157,17.521C52.877,19.298 57.599,21.072 62.32,22.846C68.103,25.018 73.885,27.191 79.667,29.365C89.844,33.191 100.023,37.011 110.203,40.828C110.941,41.105 111.678,41.381 112.438,41.666C116.148,43.057 119.857,44.448 123.567,45.838C130.231,48.336 136.895,50.835 143.558,53.334C145.047,53.892 146.536,54.45 148.024,55.009C158.303,58.863 168.58,62.718 178.858,66.575C184.625,68.739 190.392,70.903 196.159,73.066C200.079,74.537 203.999,76.007 207.918,77.479C208.662,77.758 209.406,78.037 210.172,78.325C211.641,78.876 213.11,79.428 214.578,79.979C218.047,81.282 221.518,82.581 224.992,83.869C230.661,85.974 236.31,88.101 241.896,90.42C243.195,90.944 243.195,90.944 244.519,91.479C246.034,92.094 247.54,92.732 249.032,93.399C255.02,95.793 259.152,94.236 265,92C266.025,91.634 267.05,91.268 268.106,90.891C271.702,89.6 275.284,88.271 278.863,86.934C280.228,86.427 281.592,85.92 282.957,85.413C286.64,84.045 290.321,82.673 294.002,81.299C296.333,80.43 298.664,79.562 300.995,78.695C328.076,68.616 355.121,58.443 382.155,48.239C383.588,47.699 385.021,47.158 386.453,46.617C387.162,46.35 387.871,46.082 388.602,45.806C405.669,39.365 422.748,32.954 439.829,26.549C442.066,25.71 444.302,24.871 446.539,24.031C454.207,21.154 461.875,18.281 469.546,15.413C473.311,14.006 477.076,12.597 480.84,11.186C484.933,9.652 489.028,8.121 493.123,6.592C494.693,6.006 496.263,5.418 497.832,4.829C500,4.016 502.169,3.206 504.339,2.398C504.987,2.154 505.635,1.91 506.302,1.658C510.772,0 510.772,0 513,0C513.549,28.9 513.973,57.799 514.226,86.703C514.256,90.122 514.287,93.541 514.318,96.96C514.325,97.641 514.331,98.322 514.337,99.023C514.442,110.017 514.631,121.007 514.852,131.999C515.077,143.294 515.208,154.588 515.258,165.886C515.289,172.227 515.362,178.56 515.538,184.898C516.632,226.036 516.632,226.036 509.323,234.158C504.29,238.835 498.426,241.532 492.029,243.828C487.249,245.678 483.151,248.465 478.875,251.25C468.432,257.491 457.757,263.321 447,269C446.127,269.463 445.254,269.925 444.354,270.402C408.057,289.489 367.345,305.019 326.728,311.549C323.485,312.085 320.279,312.761 317.063,313.438C276.997,321.012 231.312,321.925 191.434,312.746C188.419,312.091 185.428,311.575 182.383,311.09C150.583,305.86 119.106,294.646 90,281C88.999,280.536 87.997,280.073 86.965,279.595C67.635,270.62 48.915,260.819 30.813,249.563C29.912,249.003 29.012,248.443 28.084,247.866C26.239,246.702 24.413,245.509 22.604,244.29C19.918,242.52 17.156,241.025 14.301,239.544C1.665,232.58 1.665,232.58 -1.089,226.66C-2.781,220.038 -2.383,213.277 -2.157,206.503C-2.152,204.245 -2.155,201.987 -2.165,199.729C-2.171,193.629 -2.06,187.538 -1.926,181.44C-1.807,175.057 -1.797,168.674 -1.774,162.29C-1.722,151.585 -1.603,140.883 -1.433,130.18C-1.259,119.162 -1.124,108.144 -1.044,97.125C-1.039,96.445 -1.034,95.764 -1.029,95.063C-1.004,91.648 -0.98,88.233 -0.956,84.818C-0.76,56.544 -0.424,28.272 0,0Z" style="fill:url(#_Linear2);fill-rule:nonzero;"/>
        </g>
        <g transform="matrix(1,0,0,1,-240.28,292.608)">
            <path d="M0,0C15.167,4.099 27.853,15.434 39,26C40.402,27.305 40.402,27.305 41.832,28.637C65.115,50.762 77.779,79.018 85,110C85.246,111.035 85.246,111.035 85.496,112.092C87.781,122.148 88.295,132.076 88.375,142.375C88.389,143.559 88.403,144.743 88.417,145.963C88.411,147.076 88.405,148.189 88.398,149.336C88.395,150.332 88.392,151.327 88.388,152.353C87.935,155.44 86.953,156.618 85,159C84.27,160.63 83.594,162.285 82.957,163.953C80.633,169.69 77.977,175.204 75.199,180.734C61.113,208.568 61.113,208.568 51,238C50.754,238.867 50.507,239.733 50.253,240.626C35.888,291.207 28.875,345.225 28.813,397.688C28.811,398.723 28.81,399.759 28.809,400.826C27.274,432.379 27.274,432.379 39.105,460.172C39.731,460.775 40.356,461.378 41,462C41.86,462.874 41.86,462.874 42.738,463.766C58.597,477.756 94.476,473.733 114.024,472.535C159.074,469.3 196.213,454.424 231.508,426.516C235.053,423.721 238.656,421.021 242.297,418.354C280.06,390.638 304.674,347.204 321,304C327.305,307.591 333.489,311.28 339.563,315.25C352.594,323.716 366.21,331.179 379.875,338.563C380.999,339.171 382.122,339.779 383.28,340.405C384.34,340.974 385.4,341.543 386.492,342.129C387.434,342.635 388.376,343.141 389.347,343.662C391.857,344.928 394.375,346.001 397,347C394.011,349.411 390.997,351.785 387.961,354.137C386.841,355.004 386.841,355.004 385.699,355.889C384.174,357.069 382.648,358.249 381.121,359.428C379.558,360.64 377.999,361.857 376.443,363.08C374.839,364.341 373.226,365.591 371.604,366.828C362.801,373.734 355.043,381.69 347.174,389.62C344.747,392.066 342.311,394.503 339.875,396.939C338.307,398.513 336.739,400.086 335.172,401.66C334.097,402.737 334.097,402.737 333,403.836C328.475,408.403 324.182,413.118 320,418C319.192,418.927 318.384,419.854 317.551,420.809C304.458,436.186 294.261,452.213 286.688,470.938C286.434,471.562 286.18,472.187 285.918,472.831C284.585,476.208 283.703,479.449 283,483C281.584,487.264 278.933,488.605 275.063,490.688C268.891,493.553 262.464,495.53 255.929,497.38C247.694,499.72 239.609,502.448 231.503,505.195C217.456,509.948 203.434,514.547 189,518C188.085,518.222 187.17,518.445 186.228,518.674C148.535,527.67 107.764,529.831 70,520C69.201,519.799 68.403,519.598 67.58,519.392C56.528,516.524 49.969,513.416 43,504C41.337,502.329 39.671,500.663 38,499C23.075,481.168 13.199,460.277 7,438C6.679,436.931 6.358,435.863 6.027,434.762C0.327,413.049 4.638,389.363 7.655,367.503C8.012,364.911 8.364,362.318 8.715,359.725C14.864,314.681 22.895,269.85 35,226C35.185,225.33 35.369,224.659 35.559,223.968C42.81,197.787 52.88,172.314 65,148C66.98,148.33 68.96,148.66 71,149C68.901,145.414 66.854,142.736 63.652,140.082C58.101,135.309 52.956,130.142 47.782,124.968C46.075,123.262 44.359,121.565 42.643,119.867C35.969,113.228 29.77,106.453 24,99C23.51,98.369 23.02,97.739 22.516,97.089C5.089,74.187 -11.416,43.606 -9,14C-7.774,7.693 -4.73,4.205 0,0Z" style="fill:url(#_Linear3);fill-rule:nonzero;"/>
        </g>
        <g transform="matrix(1,0,0,1,913.981,293.237)">
            <path d="M0,0C5.541,4.371 8.231,9.149 9.074,16.168C9.47,46.096 -6.359,75.381 -24.262,98.371C-24.705,98.943 -25.149,99.515 -25.606,100.105C-36.566,113.964 -49.782,126.077 -62.33,138.471C-62.822,138.959 -63.314,139.446 -63.821,139.948C-65.237,141.346 -66.66,142.736 -68.084,144.126C-70.288,146.172 -70.288,146.172 -71.262,148.371C-69.282,148.041 -67.302,147.711 -65.262,147.371C-32.445,214.04 -19.095,287.601 -8.887,360.621C-8.765,361.488 -8.644,362.356 -8.518,363.25C-1.937,410.564 -4.12,450.161 -32.262,490.371C-34.232,492.953 -36.245,495.466 -38.352,497.938C-40.341,500.332 -40.341,500.332 -41.766,503.148C-48.27,514.575 -60.871,516.777 -72.763,520.062C-117.183,531.735 -164.858,524.581 -208.262,512.371C-208.998,512.171 -209.734,511.971 -210.492,511.765C-218.63,509.552 -218.63,509.552 -221.262,508.371C-222.245,505.421 -222.388,503.51 -222.391,500.435C-222.394,499.429 -222.397,498.423 -222.401,497.387C-222.399,496.296 -222.397,495.206 -222.395,494.082C-222.395,492.95 -222.396,491.818 -222.397,490.652C-222.398,488.246 -222.396,485.84 -222.392,483.435C-222.387,479.809 -222.392,476.184 -222.398,472.559C-222.402,460.127 -222.226,447.768 -221.262,435.371C-217.869,437.015 -214.928,438.974 -211.824,441.121C-196.182,451.468 -176.636,461.464 -158.262,465.371C-157.28,465.58 -156.298,465.789 -155.286,466.005C-126.67,471.906 -97.972,474.127 -68.887,471.059C-67.183,470.882 -67.183,470.882 -65.446,470.702C-52.929,469.24 -43.306,464.985 -35.199,454.934C-33.007,451.591 -32.633,448.431 -32.5,444.484C-32.262,442.371 -32.262,442.371 -31.285,440.66C-9.576,392.103 -36.624,296.051 -48.762,246.371C-49.01,245.342 -49.258,244.312 -49.513,243.251C-54.273,224.52 -61.784,207.459 -70.449,190.246C-71.934,187.275 -73.415,184.303 -74.892,181.328C-75.801,179.501 -76.715,177.675 -77.634,175.852C-85.262,160.587 -85.262,160.587 -85.262,155.371C-86.252,155.041 -87.242,154.711 -88.262,154.371C-89.299,119.563 -83.093,78.962 -61.262,50.371C-60.326,49.128 -60.326,49.128 -59.371,47.859C-54.633,41.768 -49.534,36.003 -44.262,30.371C-43.367,29.411 -42.472,28.45 -41.551,27.461C-31.976,17.408 -21.206,9.305 -9.074,2.559C-8.139,2.024 -8.139,2.024 -7.184,1.479C-2.875,-0.8 -2.875,-0.8 0,0Z" style="fill:url(#_Linear4);fill-rule:nonzero;"/>
        </g>
        <g transform="matrix(1,0,0,1,161.72,642.608)">
            <path d="M0,0C0.902,0.384 0.902,0.384 1.822,0.775C17.076,7.245 32.442,13.301 48,19C45.736,21.429 43.353,23.198 40.57,25.004C39.263,25.86 39.263,25.86 37.93,26.733C37.004,27.337 36.079,27.94 35.125,28.563C18.933,39.263 3.315,50.833 -9,66C-9.899,67.064 -10.799,68.128 -11.699,69.191C-35.993,98.278 -51.747,135.11 -64.743,170.406C-69.79,184.075 -75.325,196.182 -84,208C-85.183,209.657 -86.365,211.315 -87.547,212.973C-98.687,228.449 -110.51,244.158 -125.207,256.461C-127.07,258.06 -128.782,259.747 -130.5,261.5C-133.424,264.464 -136.455,267.237 -139.613,269.949C-141.394,271.479 -143.16,273.026 -144.918,274.582C-157.888,285.988 -171.813,296.167 -186,306C-186.66,305.67 -187.32,305.34 -188,305C-186.641,303.567 -186.641,303.567 -185.254,302.105C-168.813,284.696 -153.583,266.039 -142,245C-141.534,244.16 -141.067,243.32 -140.586,242.454C-126.859,217.539 -113.859,188.313 -115.168,159.152C-116.394,130.798 -101.667,104.406 -84,83C-83.498,82.391 -82.996,81.782 -82.479,81.154C-74.022,70.964 -65.18,61.015 -55.717,51.749C-53.989,49.989 -52.385,48.166 -50.781,46.293C-47.092,42.055 -43.225,38.032 -39.25,34.063C-38.549,33.362 -37.848,32.662 -37.126,31.941C-32.516,27.385 -27.817,23.159 -22.723,19.148C-19.502,16.607 -16.375,13.969 -13.25,11.313C-12.731,10.873 -12.212,10.433 -11.677,9.979C-7.773,6.667 -3.885,3.335 0,0Z" style="fill:url(#_Linear5);fill-rule:nonzero;"/>
        </g>
        <g transform="matrix(1,0,0,1,510.72,642.608)">
            <path d="M0,0C5.482,3.905 10.473,8.178 15.438,12.719C17.854,14.87 20.327,16.883 22.875,18.875C36.025,29.281 48.541,41.345 59.371,54.156C61.278,56.315 63.312,58.303 65.375,60.313C69.528,64.409 73.186,68.777 76.824,73.332C78.764,75.711 80.78,77.947 82.875,80.188C93.387,91.972 101.287,105.778 108,120C108.362,120.756 108.723,121.512 109.096,122.292C114.592,134.135 115.666,144.817 115.844,157.781C116.455,195.796 132.866,233.648 155,264C155.462,264.642 155.925,265.284 156.401,265.945C166.378,279.75 177.461,292.491 189,305C185.684,305 185.079,304.613 182.48,302.762C181.795,302.277 181.11,301.793 180.404,301.293C179.672,300.763 178.941,300.233 178.188,299.688C177.428,299.143 176.668,298.598 175.885,298.037C163.365,288.999 151.534,279.261 140,269C139.215,268.304 139.215,268.304 138.414,267.593C134.537,264.137 130.751,260.592 127,257C126.208,256.242 125.415,255.483 124.599,254.702C113.575,244.082 103.235,233.41 94.363,220.914C93.058,219.081 91.724,217.273 90.379,215.469C88.271,212.624 86.236,209.737 84.24,206.812C83.402,205.588 82.555,204.371 81.697,203.161C74.401,192.762 69.79,181.766 65.508,169.877C51.678,131.511 33.865,92.634 6.137,62.363C4.277,60.306 2.514,58.201 0.75,56.063C-12.269,41.272 -30.317,30.178 -47,20C-44.512,17.512 -42.328,16.861 -39.023,15.645C-37.802,15.19 -36.58,14.735 -35.321,14.267C-34.676,14.029 -34.03,13.791 -33.365,13.546C-22.081,9.386 -10.925,5.041 0,0Z" style="fill:url(#_Linear6);fill-rule:nonzero;"/>
        </g>
        <g transform="matrix(1,0,0,1,590.72,597.608)">
            <path d="M0,0C3,1 3,1 4.16,3.243C4.529,4.229 4.897,5.215 5.277,6.23C5.702,7.332 6.126,8.433 6.563,9.568C7.016,10.763 7.47,11.957 7.938,13.188C15.159,31.44 24.405,47.926 35.25,64.25C35.626,64.817 36.002,65.383 36.39,65.967C46.346,81.987 46.346,81.987 59.603,95.078C61.874,98.203 61.031,101.567 60.672,105.23C60.53,106.979 60.389,108.729 60.247,110.478C60.125,111.872 60.125,111.872 60.001,113.295C58.427,131.438 57.617,149.544 57.313,167.75C57.294,168.82 57.276,169.891 57.257,170.993C57.157,176.996 57.072,182.998 57,189C55.08,188.236 53.164,187.464 51.25,186.688C50.183,186.258 49.115,185.829 48.016,185.387C43.697,183.401 41.489,182.275 39.762,177.77C39.393,176.453 39.036,175.134 38.688,173.813C31.342,148.555 16.866,128.579 -0.805,109.406C-2.632,107.403 -4.409,105.373 -6.181,103.321C-9.758,99.23 -13.485,95.321 -17.305,91.457C-17.987,90.767 -18.669,90.076 -19.372,89.365C-20.811,87.912 -22.251,86.461 -23.693,85.011C-25.134,83.559 -26.571,82.102 -28.003,80.64C-37.446,71.002 -47.16,62.363 -58.071,54.418C-61.276,52.062 -64.417,49.623 -67.563,47.188C-68.626,46.368 -69.69,45.549 -70.754,44.73C-71.495,44.159 -72.236,43.588 -73,43C-69.896,40.512 -66.699,38.73 -63.145,36.953C-61.977,36.363 -60.809,35.773 -59.606,35.165C-58.988,34.853 -58.369,34.542 -57.732,34.221C-39.277,24.891 -21.136,14.795 -4.323,2.704C-2.695,1.563 -2.695,1.563 0,0Z" style="fill:url(#_Linear7);fill-rule:nonzero;"/>
        </g>
        <g transform="matrix(1,0,0,1,293.72,680.608)">
            <path d="M0,0C5.28,0.33 10.56,0.66 16,1C13.767,7.698 13.767,7.698 12.371,11.012C-2.395,46.628 -11.697,80.937 -7.716,119.648C-4.512,151.718 -5.71,183.129 -9.253,215.108C-10.021,222.063 -10.656,229.023 -11.188,236C-11.265,237.014 -11.343,238.028 -11.424,239.072C-11.872,245.268 -12.141,251.457 -12.336,257.665C-13.54,295.727 -26.055,329.171 -43,363C-44.331,359.006 -43.267,357.424 -41.813,353.5C-39.679,347.472 -38.06,341.446 -36.75,335.188C-36.587,334.424 -36.425,333.661 -36.257,332.875C-31.832,311.053 -33.85,288.838 -37,267C-37.111,266.228 -37.222,265.456 -37.337,264.661C-37.843,261.153 -38.35,257.646 -38.858,254.139C-47.74,192.812 -50.226,131.226 -31.688,71.25C-31.085,69.279 -30.522,67.297 -29.965,65.313C-26.317,53.106 -20.325,41.872 -14.708,30.48C-12.032,25.028 -9.423,19.546 -6.813,14.063C-5.924,12.199 -5.034,10.336 -4.145,8.473C-3.777,7.702 -3.409,6.931 -3.031,6.137C-2.04,4.082 -1.02,2.041 0,0Z" style="fill:url(#_Linear8);fill-rule:nonzero;"/>
        </g>
        <g transform="matrix(1,0,0,1,379.72,680.608)">
            <path d="M0,0C44.243,87.25 52.011,167.942 37.425,264.49C37.274,265.498 37.122,266.506 36.966,267.545C36.682,269.431 36.395,271.317 36.104,273.202C31.8,301.718 33.947,328.475 42.403,355.957C43.083,358.283 43.599,360.611 44,363C31.174,346.635 24.472,322.934 18.625,303.25C18.398,302.509 18.172,301.768 17.938,301.004C13.729,286.091 12.625,270.58 12.147,255.168C11.597,237.889 10.256,220.826 8.152,203.67C6.46,189.867 5.767,176.267 5.75,162.375C5.748,161.512 5.745,160.65 5.743,159.761C5.729,145.609 6.486,131.634 7.933,117.558C10.968,87.905 5.913,60.305 -3.938,32.375C-4.19,31.656 -4.443,30.937 -4.703,30.197C-7.701,21.731 -10.979,13.55 -14.901,5.463C-16,3 -16,3 -16,1C-14.646,0.828 -13.292,0.663 -11.938,0.5C-10.806,0.361 -10.806,0.361 -9.652,0.219C-6.428,-0.047 -3.234,-0.032 0,0Z" style="fill:url(#_Linear9);fill-rule:nonzero;"/>
        </g>
        <g transform="matrix(1,0,0,1,662.72,622.608)">
            <path d="M0,0C1.103,0.33 2.206,0.66 3.343,0.999C6.603,1.891 8.429,2.173 11.688,1.688C12.413,1.588 13.139,1.489 13.887,1.387C15.953,1.009 17.965,0.518 20,0C21.501,27.481 22.17,54.909 22.055,82.426C22.049,83.892 22.044,85.359 22.038,86.825C21.99,99.597 21.92,112.368 21.825,125.139C21.753,134.838 21.699,144.538 21.68,154.238C21.677,155.318 21.677,155.318 21.675,156.419C21.638,180.75 22.798,204.795 25.751,228.958C25.997,230.978 26.235,232.999 26.47,235.02C27.749,246.795 27.749,246.795 30.078,258.391C30.866,261.476 31.197,263.851 31,267C25.457,270.095 20.355,272.807 13.809,271.594C8.725,270.149 5.228,267.933 1.41,264.305C0.013,262.89 0.013,262.89 -2,262C-2.341,260.242 -2.341,260.242 -2.471,257.912C-2.524,257.038 -2.578,256.163 -2.633,255.262C-2.682,254.299 -2.731,253.336 -2.781,252.344C-2.84,251.336 -2.899,250.328 -2.96,249.289C-3.149,246.027 -3.325,242.763 -3.5,239.5C-3.618,237.423 -3.736,235.346 -3.855,233.27C-4.041,230.043 -4.224,226.816 -4.4,223.589C-4.737,217.441 -5.108,211.297 -5.524,205.154C-6.784,186.375 -7.436,167.664 -7.437,148.843C-7.437,147.346 -7.439,145.849 -7.441,144.352C-7.493,111.4 -5.501,78.674 -2.959,45.832C-1.783,30.566 -0.877,15.286 0,0Z" style="fill:url(#_Linear10);fill-rule:nonzero;"/>
        </g>
        <g transform="matrix(1,0,0,1,333.72,245.608)">
            <path d="M0,0C10.714,-0.201 21.221,0.324 31.875,1.438C32.693,1.522 33.51,1.607 34.353,1.694C117.427,10.438 201.499,27.819 343,61C344.176,84.906 344.159,108.803 344.129,132.733C344.125,135.964 344.123,139.195 344.122,142.426C344.109,174.627 343.888,206.81 343,239C342.01,238.67 341.02,238.34 340,238C335.083,237.766 332.354,237.709 328,240C327.826,236.542 327.662,233.084 327.5,229.625C327.452,228.679 327.405,227.733 327.355,226.758C326.548,209.233 327.186,191.754 327.783,174.234C328.556,151.532 329.204,128.843 329.188,106.125C329.188,105.167 329.189,104.21 329.19,103.223C329.189,95.104 329.148,86.977 328.738,78.867C328.694,77.958 328.649,77.049 328.603,76.113C328.209,73.812 328.209,73.812 325.992,72.817C325.335,72.548 324.677,72.278 324,72C323.161,69.322 323.182,66.826 323,64C322.298,64.182 321.595,64.364 320.872,64.551C317.642,65.056 315.264,64.75 312.05,64.177C310.845,63.967 309.641,63.757 308.4,63.54C307.062,63.297 305.725,63.053 304.387,62.809C302.955,62.554 301.522,62.299 300.09,62.045C296.127,61.339 292.168,60.62 288.208,59.897C285.672,59.435 283.135,58.975 280.597,58.517C221.843,47.887 163.243,36.296 104.766,24.242C103.871,24.058 102.977,23.874 102.055,23.684C93.836,21.99 85.618,20.29 77.406,18.561C51.747,13.165 25.975,8.601 0,5L0,0Z" style="fill:url(#_Linear11);fill-rule:nonzero;"/>
        </g>
        <g transform="matrix(1,0,0,1,448.514,677.054)">
            <path d="M0,0C9.37,7.949 17.51,17.006 25.206,26.554C26.018,27.539 26.83,28.524 27.667,29.539C31.882,34.861 35.375,40.335 38.456,46.367C38.761,46.958 39.066,47.548 39.38,48.157C45.126,59.95 48.233,72.983 51.596,85.606C59.902,116.637 69.462,146.842 81.745,176.533C84.476,183.155 86.998,189.849 89.518,196.554C100.931,226.502 117.069,251.569 138.206,275.554C134.279,275.554 133.367,274.319 130.393,271.804C129.422,270.987 128.452,270.17 127.452,269.328C126.929,268.881 126.407,268.435 125.869,267.975C124.125,266.485 122.371,265.008 120.616,263.531C111.78,256.064 103.718,248.365 96.206,239.554C95.514,238.765 94.822,237.976 94.109,237.164C88.527,230.625 84.465,224.045 80.768,216.304C80.214,215.167 79.659,214.029 79.088,212.857C63.417,180.41 49.833,146.345 38.377,112.183C32.462,94.55 26.24,77.364 18.206,60.554C17.772,59.641 17.772,59.641 17.33,58.71C15.426,54.7 13.5,50.703 11.547,46.716C10.917,45.428 10.289,44.139 9.666,42.847C5.382,34.015 0.377,26.203 -5.794,18.554C-6.359,17.85 -6.923,17.145 -7.504,16.42C-8.931,14.671 -10.383,12.951 -11.857,11.242C-12.359,10.655 -12.862,10.068 -13.379,9.463C-16.795,5.537 -20.371,2.018 -24.466,-1.211C-24.905,-1.619 -25.343,-2.026 -25.794,-2.446L-25.794,-4.446C-15.137,-8.641 -8.853,-7.133 0,0Z" style="fill:url(#_Linear12);fill-rule:nonzero;"/>
        </g>
        <g transform="matrix(1,0,0,1,240.657,670.921)">
            <path d="M0,0C0.873,0.108 1.745,0.217 2.645,0.328C5.139,0.699 7.606,1.114 10.063,1.688C8.567,5.34 6.503,7.236 3.5,9.75C-10.594,22.163 -20.195,38.258 -28.375,54.938C-28.929,56.059 -28.929,56.059 -29.494,57.203C-40.043,78.604 -47.994,100.605 -55.723,123.144C-61.447,139.811 -67.754,156.126 -74.671,172.331C-76.25,176.036 -77.776,179.755 -79.246,183.504C-83.729,194.925 -88.816,206.007 -94.125,217.063C-94.467,217.782 -94.81,218.501 -95.163,219.242C-98.801,226.864 -102.367,234.253 -107.938,240.688C-109.045,241.983 -109.045,241.983 -110.176,243.305C-110.86,244.05 -111.545,244.795 -112.25,245.563C-114.565,248.09 -116.874,250.615 -119.129,253.195C-126.811,261.963 -135.356,269.542 -144.438,276.813C-145.037,277.298 -145.637,277.784 -146.255,278.285C-150.582,281.688 -150.582,281.688 -153.938,281.688C-153.404,281.116 -152.87,280.545 -152.32,279.957C-126.345,251.69 -111.164,218.865 -97.735,183.311C-92.957,170.66 -92.957,170.66 -90.563,164.867C-79.422,137.847 -71.559,109.321 -64.36,81.029C-59.443,61.944 -51.915,45.731 -38.938,30.688C-37.938,29.504 -36.939,28.319 -35.941,27.133C-11.766,-1.505 -11.766,-1.505 0,0Z" style="fill:url(#_Linear13);fill-rule:nonzero;"/>
        </g>
        <g transform="matrix(1,0,0,1,378.72,761.608)">
            <path d="M0,0L1,0C2.615,12.966 2.338,25.503 0.924,38.479C-0.703,53.434 -1.286,68.204 -1.25,83.25C-1.249,84.186 -1.248,85.122 -1.247,86.086C-1.216,99.082 -0.754,112.026 0,125C-9.005,113.47 -12.945,98.062 -16,84C-16.202,83.074 -16.405,82.149 -16.613,81.195C-20.121,52.216 -12.089,25.978 0,0Z" style="fill:url(#_Linear14);fill-rule:nonzero;"/>
        </g>
        <g transform="matrix(1,0,0,1,293.72,761.608)">
            <path d="M0,0C3.569,4.437 5.328,9.295 7.375,14.563C7.971,16.09 7.971,16.09 8.578,17.648C18.29,43.135 21.812,69.469 14,96C13.567,97.57 13.567,97.57 13.125,99.172C10.399,108.176 6.116,116.568 2,125L1,125C1.104,123.213 1.104,123.213 1.21,121.39C1.917,108.673 2.236,95.986 2.25,83.25C2.252,82.28 2.255,81.31 2.257,80.31C2.271,64.98 1.332,49.998 -0.328,34.77C-1.574,23.098 -1.451,11.643 0,0Z" style="fill:url(#_Linear15);fill-rule:nonzero;"/>
        </g>
        <g transform="matrix(1,0,0,1,680.72,543.608)">
            <path d="M0,0L1,0C1.173,2.521 1.338,5.041 1.5,7.563C1.548,8.248 1.595,8.933 1.645,9.639C2.067,16.369 2.05,23.087 2.01,29.828C1.999,32.118 2,34.409 2.001,36.699C1.999,40.849 1.96,44.998 1.902,49.147C1.884,50.86 1.877,52.574 1.88,54.287C1.883,56.8 1.848,59.311 1.805,61.824C1.818,62.969 1.818,62.969 1.832,64.138C1.773,66.296 1.773,66.296 1,70C-2.275,72.868 -4.264,73.884 -8.563,74.563C-11.934,74.011 -13.654,73.422 -15.988,70.919C-18.398,66.35 -17.458,60.614 -17.27,55.605C-17.24,54.303 -17.211,53 -17.181,51.659C-17.103,48.207 -16.995,44.757 -16.88,41.307C-16.768,37.781 -16.685,34.255 -16.6,30.729C-16.428,23.818 -16.224,16.909 -16,10C-13.012,10.107 -13.012,10.107 -10.025,10.214C-7.677,10.146 -7.677,10.146 -5.188,7.813C-3.226,5.29 -1.583,2.77 0,0Z" style="fill:url(#_Linear16);fill-rule:nonzero;"/>
        </g>
        <g transform="matrix(1,0,0,1,399.282,677.179)">
            <path d="M0,0C2.438,0.43 2.438,0.43 4.613,2.859C5.348,3.993 6.059,5.143 6.75,6.305C7.132,6.927 7.515,7.549 7.909,8.19C20.972,30.086 28.353,55.023 22.438,80.43C20.639,77.732 19.721,75.445 18.739,72.392C14.031,57.86 6.972,44.262 0.023,30.695C-0.672,29.336 -1.368,27.977 -2.063,26.617C-2.384,25.99 -2.705,25.362 -3.035,24.715C-5.428,19.939 -7.19,15.105 -8.676,9.98C-9.644,7.194 -10.97,4.905 -12.563,2.43C-11.001,2.09 -9.438,1.758 -7.875,1.43C-7.005,1.244 -6.135,1.058 -5.238,0.867C-3.492,0.582 -1.745,0.293 0,0Z" style="fill:url(#_Linear17);fill-rule:nonzero;"/>
        </g>
        <g transform="matrix(1,0,0,1,274.329,677.355)">
            <path d="M0,0C4.592,0.298 8.355,0.985 12.391,3.254C11.524,4.368 11.524,4.368 10.641,5.504C8.71,8.385 7.744,11.133 6.77,14.453C4.346,21.911 0.822,28.668 -2.779,35.608C-9.303,48.211 -15.296,60.701 -19.609,74.254C-20.275,76.254 -20.942,78.254 -21.609,80.254C-27.796,70.974 -25.159,54.792 -23.088,44.309C-20.16,30.989 -14.349,19.02 -7.609,7.254C-7.202,6.42 -6.795,5.586 -6.375,4.727C-4.733,1.723 -3.458,0.336 0,0Z" style="fill:url(#_Linear18);fill-rule:nonzero;"/>
        </g>
        <g transform="matrix(1,0,0,1,311.845,230.108)">
            <path d="M0,0C7.427,4.21 11.448,10.505 13.875,18.5C4.378,25.622 -7.659,25.815 -19.125,24.5C-24.745,22.839 -29.385,20.09 -33.125,15.5C-26.516,3.836 -13.852,-6.079 0,0Z" style="fill:url(#_Linear19);fill-rule:nonzero;"/>
        </g>
        <g transform="matrix(1,0,0,1,668.72,490.608)">
            <path d="M0,0C6.38,5.348 7.503,14.481 8.22,22.444C8.828,33.606 8.642,44.511 2,54C-5.81,45.271 -4.591,28.316 -4.134,17.266C-3.811,11.812 -3.347,6.304 -2,1C-1.34,0.67 -0.68,0.34 0,0Z" style="fill:url(#_Linear20);fill-rule:nonzero;"/>
        </g>
    </g>
    <defs>
        <linearGradient id="_Linear1" x1="0" y1="0" x2="1" y2="0" gradientUnits="userSpaceOnUse" gradientTransform="matrix(639.322,984.924,-984.924,639.322,-313.682,-2.52223)"><stop offset="0" style="stop-color:rgb(15,37,64);stop-opacity:1"/><stop offset="0.55" style="stop-color:rgb(30,75,100);stop-opacity:1"/><stop offset="1" style="stop-color:rgb(84,214,234);stop-opacity:1"/></linearGradient>
        <linearGradient id="_Linear2" x1="0" y1="0" x2="1" y2="0" gradientUnits="userSpaceOnUse" gradientTransform="matrix(639.322,984.924,-984.924,639.322,-48.6816,-335.522)"><stop offset="0" style="stop-color:rgb(15,37,64);stop-opacity:1"/><stop offset="0.55" style="stop-color:rgb(30,75,100);stop-opacity:1"/><stop offset="1" style="stop-color:rgb(84,214,234);stop-opacity:1"/></linearGradient>
        <linearGradient id="_Linear3" x1="0" y1="0" x2="1" y2="0" gradientUnits="userSpaceOnUse" gradientTransform="matrix(639.322,984.924,-984.924,639.322,272.318,-278.522)"><stop offset="0" style="stop-color:rgb(15,37,64);stop-opacity:1"/><stop offset="0.55" style="stop-color:rgb(30,75,100);stop-opacity:1"/><stop offset="1" style="stop-color:rgb(84,214,234);stop-opacity:1"/></linearGradient>
        <linearGradient id="_Linear4" x1="0" y1="0" x2="1" y2="0" gradientUnits="userSpaceOnUse" gradientTransform="matrix(639.322,984.924,-984.924,639.322,-881.943,-279.151)"><stop offset="0" style="stop-color:rgb(15,37,64);stop-opacity:1"/><stop offset="0.55" style="stop-color:rgb(30,75,100);stop-opacity:1"/><stop offset="1" style="stop-color:rgb(84,214,234);stop-opacity:1"/></linearGradient>
        <linearGradient id="_Linear5" x1="0" y1="0" x2="1" y2="0" gradientUnits="userSpaceOnUse" gradientTransform="matrix(639.322,984.924,-984.924,639.322,-129.682,-628.522)"><stop offset="0" style="stop-color:rgb(15,37,64);stop-opacity:1"/><stop offset="0.55" style="stop-color:rgb(30,75,100);stop-opacity:1"/><stop offset="1" style="stop-color:rgb(84,214,234);stop-opacity:1"/></linearGradient>
        <linearGradient id="_Linear6" x1="0" y1="0" x2="1" y2="0" gradientUnits="userSpaceOnUse" gradientTransform="matrix(639.322,984.924,-984.924,639.322,-478.682,-628.522)"><stop offset="0" style="stop-color:rgb(15,37,64);stop-opacity:1"/><stop offset="0.55" style="stop-color:rgb(30,75,100);stop-opacity:1"/><stop offset="1" style="stop-color:rgb(84,214,234);stop-opacity:1"/></linearGradient>
        <linearGradient id="_Linear7" x1="0" y1="0" x2="1" y2="0" gradientUnits="userSpaceOnUse" gradientTransform="matrix(639.322,984.924,-984.924,639.322,-558.682,-583.522)"><stop offset="0" style="stop-color:rgb(15,37,64);stop-opacity:1"/><stop offset="0.55" style="stop-color:rgb(30,75,100);stop-opacity:1"/><stop offset="1" style="stop-color:rgb(84,214,234);stop-opacity:1"/></linearGradient>
        <linearGradient id="_Linear8" x1="0" y1="0" x2="1" y2="0" gradientUnits="userSpaceOnUse" gradientTransform="matrix(639.322,984.924,-984.924,639.322,-261.682,-666.522)"><stop offset="0" style="stop-color:rgb(15,37,64);stop-opacity:1"/><stop offset="0.55" style="stop-color:rgb(30,75,100);stop-opacity:1"/><stop offset="1" style="stop-color:rgb(84,214,234);stop-opacity:1"/></linearGradient>
        <linearGradient id="_Linear9" x1="0" y1="0" x2="1" y2="0" gradientUnits="userSpaceOnUse" gradientTransform="matrix(639.322,984.924,-984.924,639.322,-347.682,-666.522)"><stop offset="0" style="stop-color:rgb(15,37,64);stop-opacity:1"/><stop offset="0.55" style="stop-color:rgb(30,75,100);stop-opacity:1"/><stop offset="1" style="stop-color:rgb(84,214,234);stop-opacity:1"/></linearGradient>
        <linearGradient id="_Linear10" x1="0" y1="0" x2="1" y2="0" gradientUnits="userSpaceOnUse" gradientTransform="matrix(639.322,984.924,-984.924,639.322,-630.682,-608.522)"><stop offset="0" style="stop-color:rgb(15,37,64);stop-opacity:1"/><stop offset="0.55" style="stop-color:rgb(30,75,100);stop-opacity:1"/><stop offset="1" style="stop-color:rgb(84,214,234);stop-opacity:1"/></linearGradient>
        <linearGradient id="_Linear11" x1="0" y1="0" x2="1" y2="0" gradientUnits="userSpaceOnUse" gradientTransform="matrix(639.322,984.924,-984.924,639.322,-301.682,-231.522)"><stop offset="0" style="stop-color:rgb(15,37,64);stop-opacity:1"/><stop offset="0.55" style="stop-color:rgb(30,75,100);stop-opacity:1"/><stop offset="1" style="stop-color:rgb(84,214,234);stop-opacity:1"/></linearGradient>
        <linearGradient id="_Linear12" x1="0" y1="0" x2="1" y2="0" gradientUnits="userSpaceOnUse" gradientTransform="matrix(639.322,984.924,-984.924,639.322,-416.476,-662.968)"><stop offset="0" style="stop-color:rgb(15,37,64);stop-opacity:1"/><stop offset="0.55" style="stop-color:rgb(30,75,100);stop-opacity:1"/><stop offset="1" style="stop-color:rgb(84,214,234);stop-opacity:1"/></linearGradient>
        <linearGradient id="_Linear13" x1="0" y1="0" x2="1" y2="0" gradientUnits="userSpaceOnUse" gradientTransform="matrix(639.322,984.924,-984.924,639.322,-208.619,-656.835)"><stop offset="0" style="stop-color:rgb(15,37,64);stop-opacity:1"/><stop offset="0.55" style="stop-color:rgb(30,75,100);stop-opacity:1"/><stop offset="1" style="stop-color:rgb(84,214,234);stop-opacity:1"/></linearGradient>
        <linearGradient id="_Linear14" x1="0" y1="0" x2="1" y2="0" gradientUnits="userSpaceOnUse" gradientTransform="matrix(639.322,984.924,-984.924,639.322,-346.682,-747.522)"><stop offset="0" style="stop-color:rgb(15,37,64);stop-opacity:1"/><stop offset="0.55" style="stop-color:rgb(30,75,100);stop-opacity:1"/><stop offset="1" style="stop-color:rgb(84,214,234);stop-opacity:1"/></linearGradient>
        <linearGradient id="_Linear15" x1="0" y1="0" x2="1" y2="0" gradientUnits="userSpaceOnUse" gradientTransform="matrix(639.322,984.924,-984.924,639.322,-261.682,-747.522)"><stop offset="0" style="stop-color:rgb(15,37,64);stop-opacity:1"/><stop offset="0.55" style="stop-color:rgb(30,75,100);stop-opacity:1"/><stop offset="1" style="stop-color:rgb(84,214,234);stop-opacity:1"/></linearGradient>
        <linearGradient id="_Linear16" x1="0" y1="0" x2="1" y2="0" gradientUnits="userSpaceOnUse" gradientTransform="matrix(639.322,984.924,-984.924,639.322,-648.682,-529.522)"><stop offset="0" style="stop-color:rgb(15,37,64);stop-opacity:1"/><stop offset="0.55" style="stop-color:rgb(30,75,100);stop-opacity:1"/><stop offset="1" style="stop-color:rgb(84,214,234);stop-opacity:1"/></linearGradient>
        <linearGradient id="_Linear17" x1="0" y1="0" x2="1" y2="0" gradientUnits="userSpaceOnUse" gradientTransform="matrix(639.322,984.924,-984.924,639.322,-367.244,-663.093)"><stop offset="0" style="stop-color:rgb(15,37,64);stop-opacity:1"/><stop offset="0.55" style="stop-color:rgb(30,75,100);stop-opacity:1"/><stop offset="1" style="stop-color:rgb(84,214,234);stop-opacity:1"/></linearGradient>
        <linearGradient id="_Linear18" x1="0" y1="0" x2="1" y2="0" gradientUnits="userSpaceOnUse" gradientTransform="matrix(639.322,984.924,-984.924,639.322,-242.291,-663.268)"><stop offset="0" style="stop-color:rgb(15,37,64);stop-opacity:1"/><stop offset="0.55" style="stop-color:rgb(30,75,100);stop-opacity:1"/><stop offset="1" style="stop-color:rgb(84,214,234);stop-opacity:1"/></linearGradient>
        <linearGradient id="_Linear19" x1="0" y1="0" x2="1" y2="0" gradientUnits="userSpaceOnUse" gradientTransform="matrix(639.322,984.924,-984.924,639.322,-279.807,-216.022)"><stop offset="0" style="stop-color:rgb(15,37,64);stop-opacity:1"/><stop offset="0.55" style="stop-color:rgb(30,75,100);stop-opacity:1"/><stop offset="1" style="stop-color:rgb(84,214,234);stop-opacity:1"/></linearGradient>
        <linearGradient id="_Linear20" x1="0" y1="0" x2="1" y2="0" gradientUnits="userSpaceOnUse" gradientTransform="matrix(639.322,984.924,-984.924,639.322,-636.682,-476.522)"><stop offset="0" style="stop-color:rgb(15,37,64);stop-opacity:1"/><stop offset="0.55" style="stop-color:rgb(30,75,100);stop-opacity:1"/><stop offset="1" style="stop-color:rgb(84,214,234);stop-opacity:1"/></linearGradient>
    </defs>
</svg>
