<?xml version="1.0" encoding="UTF-8"?>
<svg version="1.1" xmlns="http://www.w3.org/2000/svg" width="1920" height="1440">
<path d="M0 0 C2.15521873 0.77194581 4.31058436 1.54348156 6.46606445 2.31469727 C8.93308704 3.22866183 11.39870678 4.14590781 13.86328125 5.06640625 C15.22765888 5.57343012 16.59212783 6.08020832 17.9566803 6.58676147 C21.6396404 7.95500976 25.32103049 9.32743549 29.00206757 10.70084763 C31.33259119 11.5699928 33.66356253 12.43792607 35.99468994 13.30545044 C61.67405479 22.86208734 87.3222463 32.500782 112.95703125 42.17626953 C115.83723414 43.26336078 118.71744044 44.35044299 121.59765625 45.4375 C122.31121403 45.70682217 123.0247718 45.97614433 123.75995255 46.25362778 C140.76835039 52.67256603 157.78958037 59.05719244 174.8125 65.4375 C176.31768905 66.00169599 177.82287704 66.5658948 179.32806396 67.13009644 C185.35963437 69.39091177 191.39127223 71.65154704 197.42303467 73.91184998 C207.95311217 77.85782623 218.48263327 81.80528376 229.01171875 85.75390625 C230.12494475 86.17138783 230.12494475 86.17138783 231.26066017 86.59730339 C235.0081217 88.00268371 238.75557363 89.40808964 242.50302124 90.81350708 C249.2518967 93.34454578 256.00085737 95.87535727 262.74981117 98.40618706 C266.49987756 99.81244884 270.24993851 101.21872515 274 102.625 C275.49999997 103.18750007 276.99999997 103.75000007 278.5 104.3125 C305.5 114.4375 332.5 124.5625 359.5 134.6875 C360.2425085 134.96594065 360.98501699 135.24438129 361.75002575 135.53125954 C363.24994002 136.09372747 364.74985419 136.65619568 366.24976826 137.21866417 C370.00107901 138.62540709 373.75239158 140.03214517 377.50370789 141.43887329 C384.23805788 143.96423208 390.97239556 146.48962364 397.70666409 149.01519966 C401.43594403 150.41380322 405.16523481 151.81237792 408.89453125 153.2109375 C409.63375132 153.48816021 410.37297138 153.76538292 411.13459206 154.05100632 C421.94654048 158.10564212 432.75911761 162.15859804 443.57201767 166.21069527 C450.61064093 168.84845228 457.64911887 171.48659697 464.6875 174.125 C465.44250793 174.40802097 466.19751587 174.69104195 466.97540283 174.98263931 C492.66605906 184.61339947 518.34292176 194.28007584 544 204 C544 204.66 544 205.32 544 206 C514.88560246 216.98261161 485.77061202 227.96372017 456.63671875 238.89453125 C455.89222662 239.17389841 455.14773449 239.45326557 454.38068199 239.7410984 C446.1709902 242.821559 437.95976586 245.897862 429.74584961 248.96704102 C426.7705359 250.07922997 423.79537075 251.19181539 420.8203125 252.3046875 C420.08800226 252.57857992 419.35569202 252.85247234 418.60119057 253.13466454 C407.99363598 257.10421986 397.40966038 261.13226017 386.83727837 265.19448471 C382.38075559 266.90444796 377.92041477 268.60442955 373.45992374 270.30401039 C369.25982726 271.90577333 365.06658405 273.52398415 360.87783432 275.15517235 C358.92674775 275.91147586 356.97251773 276.65883916 355.01651001 277.40231323 C352.65182719 278.3011488 350.29233063 279.21380975 347.93954468 280.14334106 C341.49592791 282.56172682 336.73503546 283.61680401 330 282 C328.75259033 281.7119751 327.50518066 281.4239502 326.2199707 281.12719727 C324.96788818 280.77713623 323.71580566 280.4270752 322.42578125 280.06640625 C320.9640165 279.66547085 319.50209454 279.26510831 318.04003906 278.86523438 C317.27340942 278.65342529 316.50677979 278.44161621 315.71691895 278.22338867 C293.63341174 272.1534233 271.32778602 267.26571684 248.9107666 262.60559082 C246.10625418 262.02210639 243.30257961 261.43473901 240.49902344 260.84667969 C186.79072317 249.61615586 132.65661185 239.62349022 78.4375 231.1875 C76.98224411 230.96087677 76.98224411 230.96087677 75.49758911 230.72967529 C61.69556009 228.59620607 47.86285202 226.69363166 34 225 C32.8543457 224.85763916 31.70869141 224.71527832 30.52832031 224.56860352 C24.70893535 223.95977378 19.03224671 224.05441306 13.19921875 224.2890625 C10.83231912 224.37034716 8.46537353 224.45004601 6.09838867 224.52880859 C4.48138386 224.59332504 2.86499625 224.6755776 1.24975586 224.77490234 C-4.01174607 225.08549367 -8.84555781 225.20853975 -14 224 C-16.7566545 221.41508723 -18.15255815 219.14889348 -19.71826172 215.72607422 C-22.11458119 210.62944504 -26.35235809 208.1958516 -31.34375 205.94140625 C-38.83181403 203.27556067 -45.74427545 203.32829655 -53.15234375 206.23828125 C-63.92573231 211.39192942 -69.90511642 216.85556953 -74.1875 228.125 C-73.94042462 231.9134892 -72.72561797 233.53316921 -70.15234375 236.2578125 C-59.49917964 244.88088181 -47.19767573 246.34540696 -34 245 C-29.6563362 244.10499177 -25.51795008 242.7023542 -21.35546875 241.19140625 C-14.48463508 238.75182037 -10.31318249 239.33042321 -3.3125 240.9375 C6.87112564 243.16934343 17.07844707 245.16697686 27.32650757 247.07510376 C43.09713443 250.01902047 58.80970763 253.18351148 74.49960327 256.5302124 C102.66696707 262.53677126 130.88592707 268.27847825 159.125 273.9375 C160.20105247 274.1531385 161.27710495 274.36877701 162.38576508 274.59095001 C205.80799627 283.28642133 249.2976414 291.81438544 293 299 C290.56761998 301.43238002 288.53267397 302.07562337 285.30615234 303.27709961 C284.09430267 303.73144882 282.882453 304.18579803 281.63388062 304.65391541 C280.28459859 305.1534789 278.93528311 305.65295202 277.5859375 306.15234375 C276.17320782 306.67977263 274.76066531 307.20770312 273.34829712 307.73609924 C270.30026575 308.87525604 267.25098057 310.01096686 264.20068359 311.14404297 C259.31797504 312.95783851 254.43807116 314.77909547 249.55859375 316.6015625 C243.6097141 318.8229227 237.66019874 321.04256354 231.70984268 323.2599659 C221.37755914 327.11050023 211.05024997 330.97413769 200.7265625 334.84765625 C199.99221355 335.12318266 199.25786461 335.39870907 198.50126266 335.68258476 C194.81059715 337.06740393 191.12002857 338.45248122 187.42950439 339.837677 C180.70502605 342.36148848 173.97967664 344.88297723 167.25440598 347.40467644 C163.50290289 348.81135917 159.75145415 350.2181868 156 351.625 C154.50000026 352.1875007 153.00000026 352.7500007 151.5 353.3125 C150.7575 353.5909375 150.015 353.869375 149.25 354.15625 C147 355 144.75 355.84375 142.5 356.6875 C141.7574808 356.96594474 141.01496161 357.24438948 140.24994183 357.53127193 C138.75013584 358.0936991 137.25032976 358.65612598 135.75052357 359.21855259 C131.99755423 360.6259147 128.24458672 362.03328167 124.49162292 363.44065857 C117.77708219 365.95863372 111.0625297 368.47657747 104.34790707 370.99433422 C100.64468927 372.38291706 96.94148243 373.7715291 93.23828125 375.16015625 C92.13564658 375.57362147 92.13564658 375.57362147 91.01073647 375.99543953 C80.65194992 379.87983526 70.29368385 383.76561636 59.9357605 387.65231323 C54.09935768 389.84235241 48.26281994 392.03203195 42.42625237 394.221632 C37.674911 396.00414556 32.92374922 397.78713671 28.17272472 399.57049465 C25.23559023 400.67285221 22.29828126 401.77474425 19.36092567 402.87651253 C18.00931835 403.38359232 16.65778205 403.89086144 15.30632591 404.39834404 C12.28917266 405.53126237 9.27072336 406.65890324 6.24472046 407.76803589 C4.14854267 408.56391826 2.07154607 409.41324371 0.02310181 410.32498169 C-5.83121876 412.83487226 -9.3106797 413.40349542 -15.30770874 411.11965942 C-16.19616486 410.75017181 -17.08462097 410.3806842 -18 410 C-20.15384571 409.2242315 -22.30933001 408.45300361 -24.46606445 407.68530273 C-26.93308704 406.77133817 -29.39870678 405.85409219 -31.86328125 404.93359375 C-33.22765888 404.42656988 -34.59212783 403.91979168 -35.9566803 403.41323853 C-39.6396404 402.04499024 -43.32103049 400.67256451 -47.00206757 399.29915237 C-49.33259119 398.4300072 -51.66356253 397.56207393 -53.99468994 396.69454956 C-79.67405479 387.13791266 -105.3222463 377.499218 -130.95703125 367.82373047 C-133.83723414 366.73663922 -136.71744044 365.64955701 -139.59765625 364.5625 C-140.31121403 364.29317783 -141.0247718 364.02385567 -141.75995255 363.74637222 C-158.76835039 357.32743397 -175.78958037 350.94280756 -192.8125 344.5625 C-194.31768905 343.99830401 -195.82287704 343.4341052 -197.32806396 342.86990356 C-203.35963437 340.60908823 -209.39127223 338.34845296 -215.42303467 336.08815002 C-225.95311217 332.14217377 -236.48263327 328.19471624 -247.01171875 324.24609375 C-247.75386942 323.96777269 -248.49602009 323.68945164 -249.26066017 323.40269661 C-253.0081217 321.99731629 -256.75557363 320.59191036 -260.50302124 319.18649292 C-267.2518967 316.65545422 -274.00085737 314.12464273 -280.74981117 311.59381294 C-284.49987756 310.18755116 -288.24993851 308.78127485 -292 307.375 C-293.49999997 306.81249993 -294.99999997 306.24999993 -296.5 305.6875 C-323.5 295.5625 -350.5 285.4375 -377.5 275.3125 C-378.61376275 274.89483903 -378.61376275 274.89483903 -379.75002575 274.46874046 C-381.24994002 273.90627253 -382.74985419 273.34380432 -384.24976826 272.78133583 C-388.00107901 271.37459291 -391.75239158 269.96785483 -395.50370789 268.56112671 C-402.23805788 266.03576792 -408.97239556 263.51037636 -415.70666409 260.98480034 C-419.43594403 259.58619678 -423.16523481 258.18762208 -426.89453125 256.7890625 C-427.63375132 256.51183979 -428.37297138 256.23461708 -429.13459206 255.94899368 C-439.94654048 251.89435788 -450.75911761 247.84140196 -461.57201767 243.78930473 C-468.61064093 241.15154772 -475.64911887 238.51340303 -482.6875 235.875 C-483.44250793 235.59197903 -484.19751587 235.30895805 -484.97540283 235.01736069 C-510.66605906 225.38660053 -536.34292176 215.71992416 -562 206 C-562 205.34 -562 204.68 -562 204 C-527.07347076 190.82492038 -492.14129973 177.66508256 -457.1875 164.5625 C-456.44723572 164.2850079 -455.70697144 164.00751579 -454.9442749 163.72161484 C-448.15494075 161.17666057 -441.36548198 158.6320389 -434.57589722 156.0877533 C-424.04617773 152.14190402 -413.51701111 148.19458288 -402.98828125 144.24609375 C-402.24613058 143.96777269 -401.50397991 143.68945164 -400.73933983 143.40269661 C-396.9918783 141.99731629 -393.24442637 140.59191036 -389.49697876 139.18649292 C-382.7481033 136.65545422 -375.99914263 134.12464273 -369.25018883 131.59381294 C-365.50012244 130.18755116 -361.75006149 128.78127485 -358 127.375 C-356.50000003 126.81249993 -355.00000003 126.24999993 -353.5 125.6875 C-352.38625 125.26984375 -352.38625 125.26984375 -351.25 124.84375 C-301 106 -250.75 87.15625 -200.5 68.3125 C-199.75749339 68.03405998 -199.01498678 67.75561996 -198.24997997 67.46874237 C-196.75004683 66.90626752 -195.25011359 66.34379295 -193.75018024 65.78131866 C-189.9991564 64.37468612 -186.24813438 62.96804872 -182.49711609 61.56140137 C-175.75934388 59.03471431 -169.0215593 56.50806028 -162.28370571 53.98159027 C-158.54980513 52.58150109 -154.81591536 51.1813831 -151.08203125 49.78125 C-150.34208231 49.50378433 -149.60213337 49.22631866 -148.83976173 48.94044495 C-140.4467291 45.79317806 -132.05394027 42.64526265 -123.66162109 39.49609375 C-122.49882504 39.0597804 -122.49882504 39.0597804 -121.31253815 38.61465263 C-117.40142191 37.14705893 -113.49039794 35.67922009 -109.57952881 34.21096802 C-101.94186335 31.34396236 -94.30260247 28.48134988 -86.65966797 25.62841797 C-83.72217384 24.53134404 -80.78485378 23.43380526 -77.84765625 22.3359375 C-77.13254128 22.06870754 -76.4174263 21.80147758 -75.68064117 21.52614975 C-66.21022453 17.98456329 -56.76942982 14.37431849 -47.35038948 10.6984024 C-43.2148761 9.08853051 -39.07153753 7.49885429 -34.92935181 5.90625 C-32.75696031 5.06391336 -30.58863123 4.21100991 -28.42489624 3.34667969 C-25.49334154 2.17585961 -22.55003974 1.04143995 -19.6015625 -0.0859375 C-18.34894875 -0.60382339 -18.34894875 -0.60382339 -17.07102966 -1.13217163 C-10.48309368 -3.58605416 -6.41010658 -2.52873538 0 0 Z " fill="#000000" transform="translate(969,251)"/>
<path d="M0 0 C3.17250371 1.10635994 6.34450205 2.2141621 9.51641846 3.32220459 C10.85003261 3.78725183 10.85003261 3.78725183 12.21058846 4.26169395 C19.90456423 6.95072327 27.54573814 9.76473887 35.171875 12.640625 C36.55862022 13.16159765 37.94544337 13.68236292 39.33233643 14.20294189 C42.27445318 15.30775169 45.21605457 16.41391782 48.15722656 17.52124023 C52.8774063 19.29832269 57.5987776 21.07222488 62.3203125 22.84570312 C68.10277143 25.0178935 73.88496916 27.19077628 79.66681671 29.36459351 C89.8437223 33.19074632 100.02271695 37.0113018 110.203125 40.828125 C110.9406708 41.10464905 111.67821659 41.3811731 112.43811226 41.66607666 C116.14768263 43.05685311 119.85729246 44.44752428 123.56692505 45.83813477 C130.23092408 48.33626438 136.89467233 50.83506277 143.55839729 53.33392334 C145.04704585 53.89215813 146.53569712 54.45038568 148.02435112 55.00860596 C158.30267562 58.86282532 168.58048662 62.71841136 178.85794067 66.57495117 C184.62493989 68.73896869 190.39207647 70.90262004 196.15924263 73.06619263 C200.07901477 74.53674111 203.99870986 76.00749417 207.91821289 77.47875977 C208.66202776 77.7579274 209.40584263 78.03709503 210.17219734 78.32472229 C211.64100149 78.87607822 213.1097361 79.42761946 214.57839775 79.97935486 C218.04736989 81.2820023 221.517746 82.58056985 224.99197388 83.86914062 C230.66083121 85.97446336 236.31008366 88.10146503 241.89599609 90.41992188 C243.19454781 90.94419769 243.19454781 90.94419769 244.51933289 91.47906494 C246.03397582 92.09414504 247.53993122 92.73150403 249.03205872 93.39935303 C255.02030922 95.79257185 259.1520523 94.23586263 265 92 C266.02491043 91.63407745 267.04982086 91.26815491 268.10578918 90.8911438 C271.70247844 89.60046513 275.2836444 88.27055888 278.86328125 86.93359375 C280.22765888 86.42656988 281.59212783 85.91979168 282.9566803 85.41323853 C286.6396404 84.04499024 290.32103049 82.67256451 294.00206757 81.29915237 C296.33259119 80.4300072 298.66356253 79.56207393 300.99468994 78.69454956 C328.07593158 68.61620087 355.12103106 58.44275345 382.15531921 48.23925781 C383.5879202 47.69856522 385.02052213 47.15787512 386.453125 46.6171875 C387.16218805 46.34956604 387.87125111 46.08194458 388.60180092 45.80621338 C405.66920679 39.36507958 422.74785579 32.95397091 439.82874298 26.54868698 C442.06565434 25.70975697 444.3024673 24.87056521 446.53924561 24.03128052 C454.20662096 21.1544992 461.87510213 18.28070724 469.54599953 15.41332912 C473.31119176 14.00589589 477.07585094 12.59706014 480.83972168 11.18609619 C484.93309323 9.65179216 489.027721 8.1208841 493.12319565 6.59220314 C494.69309226 6.00561254 496.26256897 5.41789685 497.83160782 4.82901573 C499.99973212 4.01552914 502.16933627 3.20612076 504.33935547 2.39770508 C504.98696712 2.15366503 505.63457878 1.90962498 506.30181503 1.65818977 C510.7718368 0 510.7718368 0 513 0 C513.54858225 28.89967737 513.97277414 57.79884339 514.22556791 86.70269462 C514.25558159 90.12195471 514.28664564 93.5412045 514.31835938 96.96044922 C514.32465483 97.64110303 514.33095028 98.32175685 514.3374365 99.02303654 C514.44161757 110.01663492 514.63068847 121.00719346 514.85166711 131.99899369 C515.07683957 143.2943916 515.20776378 154.58828305 515.25812387 165.88603735 C515.28932972 172.22653604 515.36221174 178.56016532 515.53752136 184.89845276 C516.63188936 226.03569155 516.63188936 226.03569155 509.32327223 234.15779448 C504.29007374 238.83451403 498.4263547 241.53245804 492.02864075 243.82788086 C487.24921852 245.67757277 483.15079105 248.4653152 478.875 251.25 C468.43231723 257.49112219 457.75664276 263.32102711 447 269 C446.12682129 269.4626123 445.25364258 269.92522461 444.35400391 270.40185547 C408.05663172 289.48897465 367.34528405 305.01884802 326.72802734 311.54882812 C323.48486062 312.08519577 320.2789693 312.76054986 317.0625 313.4375 C276.99699795 321.01214589 231.31218306 321.9249108 191.43359375 312.74609375 C188.41865473 312.09097048 185.42838593 311.57479027 182.3828125 311.08984375 C150.58278276 305.85978561 119.10567924 294.64568281 90 281 C88.99855957 280.53625977 87.99711914 280.07251953 86.96533203 279.59472656 C67.63502337 270.62047565 48.91533879 260.81915315 30.8125 249.5625 C29.91200928 249.00264404 29.01151855 248.44278809 28.08374023 247.8659668 C26.23945829 246.70173416 24.41269346 245.50930953 22.6040926 244.29038525 C19.91795601 242.51986428 17.15623064 241.02481747 14.30121899 239.54395771 C1.6649904 232.57955432 1.6649904 232.57955432 -1.08863044 226.65955901 C-2.7808838 220.0383163 -2.383409 213.2766547 -2.15698242 206.50268555 C-2.1516153 204.24464372 -2.15464651 201.98656879 -2.16539001 199.72854614 C-2.17081898 193.62945935 -2.05953756 187.53754297 -1.92648482 181.44011664 C-1.80730157 175.05703595 -1.79651797 168.67377081 -1.77400208 162.28974915 C-1.72174873 151.58498321 -1.60327401 140.88333654 -1.43334961 130.17993164 C-1.2586125 119.16183432 -1.12429306 108.14444957 -1.04370117 97.12524414 C-1.03870943 96.44463756 -1.03371768 95.76403098 -1.02857467 95.06279995 C-1.00377672 91.64797033 -0.9797668 88.23313571 -0.95614851 84.81829774 C-0.7595737 56.54373375 -0.42385616 28.27200767 0 0 Z " fill="#000000" transform="translate(704,584)"/>
<path d="M0 0 C15.16672576 4.09911507 27.85346805 15.43383878 39 26 C40.40185547 27.30517578 40.40185547 27.30517578 41.83203125 28.63671875 C65.11536372 50.76204014 77.77922892 79.01785433 85 110 C85.24556641 111.03543945 85.24556641 111.03543945 85.49609375 112.09179688 C87.78109295 122.1476818 88.29521602 132.07604682 88.375 142.375 C88.38893799 143.55892334 88.40287598 144.74284668 88.41723633 145.96264648 C88.41103271 147.07583252 88.4048291 148.18901855 88.3984375 149.3359375 C88.39505371 150.33157715 88.39166992 151.3272168 88.38818359 152.35302734 C87.93540398 155.44047174 86.95262337 156.61759128 85 159 C84.26982367 160.62988586 83.5943582 162.28474262 82.95703125 163.953125 C80.63317301 169.69023148 77.9768872 175.20387659 75.19921875 180.734375 C61.1133813 208.56764821 61.1133813 208.56764821 51 238 C50.75362793 238.8667334 50.50725586 239.7334668 50.25341797 240.62646484 C35.88779112 291.20717938 28.87489273 345.22512114 28.8125 397.6875 C28.81123108 398.72320129 28.80996216 399.75890259 28.80865479 400.82598877 C27.27446454 432.37913315 27.27446454 432.37913315 39.10546875 460.171875 C39.73066406 460.77515625 40.35585938 461.3784375 41 462 C41.86044922 462.87398437 41.86044922 462.87398437 42.73828125 463.765625 C58.59687008 477.75649995 94.47611096 473.73313716 114.02441406 472.53515625 C159.07426342 469.30008045 196.21310939 454.42385627 231.5078125 426.515625 C235.05275125 423.72060651 238.65583829 421.02134093 242.29736328 418.35400391 C280.06017442 390.63809527 304.67404382 347.20405477 321 304 C327.30455851 307.59105805 333.489298 311.27988562 339.5625 315.25 C352.59422321 323.71573183 366.21039686 331.17871646 379.875 338.5625 C380.99874023 339.17053467 382.12248047 339.77856934 383.28027344 340.4050293 C384.34020508 340.97390869 385.40013672 341.54278809 386.4921875 342.12890625 C387.43433105 342.63494385 388.37647461 343.14098145 389.34716797 343.66235352 C391.85684822 344.92781809 394.37453034 346.00065645 397 347 C394.0114089 349.41111434 390.99659929 351.78537665 387.9609375 354.13671875 C386.84138672 355.00393555 386.84138672 355.00393555 385.69921875 355.88867188 C384.1738505 357.06922999 382.64782994 358.24894586 381.12109375 359.42773438 C379.55766637 360.63972466 377.99861313 361.85737279 376.44335938 363.07983398 C374.83893837 364.34070241 373.22584712 365.5906307 371.60351562 366.82836914 C362.80127159 373.73442095 355.0430644 381.6895967 347.17382812 389.62036133 C344.74664954 392.06587577 342.31148446 394.50321349 339.875 396.93945312 C338.30681827 398.51254906 336.73909402 400.0861012 335.171875 401.66015625 C334.09664581 402.73705467 334.09664581 402.73705467 332.99969482 403.83570862 C328.47483473 408.40272931 324.1824069 413.11840968 320 418 C319.19175781 418.92683594 318.38351562 419.85367187 317.55078125 420.80859375 C304.45805101 436.18626818 294.26125222 452.21284688 286.6875 470.9375 C286.43371582 471.56221191 286.17993164 472.18692383 285.91845703 472.83056641 C284.58489825 476.20837212 283.70293856 479.44925905 283 483 C281.58398748 487.26403772 278.93319234 488.60536561 275.0625 490.6875 C268.89127906 493.55333993 262.46439289 495.53012465 255.92944336 497.37963867 C247.69401939 499.72021696 239.60888245 502.44779674 231.50286865 505.19543457 C217.45568109 509.94838065 203.43407915 514.54736609 189 518 C188.08524902 518.22236328 187.17049805 518.44472656 186.22802734 518.67382812 C148.53460954 527.66950356 107.76359518 529.83052319 70 520 C69.20126465 519.79922852 68.4025293 519.59845703 67.57958984 519.39160156 C56.52844403 516.5244444 49.96900806 513.41636849 43 504 C41.33728432 502.32939169 39.67052915 500.66279522 38 499 C23.07537255 481.1679776 13.19940145 460.27697003 7 438 C6.67902344 436.93136719 6.35804688 435.86273437 6.02734375 434.76171875 C0.32738056 413.0488357 4.63824011 389.3625036 7.65496826 367.50317383 C8.01229049 364.91083365 8.36387905 362.31775126 8.71533203 359.72460938 C14.86389103 314.68102145 22.89549405 269.85049955 35 226 C35.18457764 225.32958679 35.36915527 224.65917358 35.55932617 223.96844482 C42.80986459 197.78730033 52.87968284 172.31386886 65 148 C66.98 148.33 68.96 148.66 71 149 C68.9007402 145.41376451 66.85401435 142.73647423 63.65234375 140.08203125 C58.10135424 135.3091884 52.95582103 130.14186165 47.7824707 124.96777344 C46.07456944 123.26205402 44.35881955 121.56450973 42.64257812 119.8671875 C35.96879438 113.22794889 29.77022727 106.45343147 24 99 C23.51023682 98.3694873 23.02047363 97.73897461 22.51586914 97.08935547 C5.08866092 74.18694529 -11.41601448 43.60576469 -9 14 C-7.77361386 7.6928713 -4.73029461 4.20470632 0 0 Z " fill="#000000" transform="translate(383,527)"/>
<path d="M0 0 C5.54103872 4.37057212 8.23113997 9.14884777 9.07421875 16.16796875 C9.47008606 46.09553714 -6.35872915 75.38056393 -24.26171875 98.37109375 C-24.70547852 98.94327637 -25.14923828 99.51545898 -25.60644531 100.10498047 C-36.56562476 113.96416484 -49.78218258 126.07690428 -62.33007812 138.47119141 C-62.82209717 138.95855774 -63.31411621 139.44592407 -63.82104492 139.94805908 C-65.23664573 141.34632772 -66.66025118 142.73647757 -68.08398438 144.12646484 C-70.28812037 146.1723611 -70.28812037 146.1723611 -71.26171875 148.37109375 C-69.28171875 148.04109375 -67.30171875 147.71109375 -65.26171875 147.37109375 C-32.44464217 214.03959604 -19.0953107 287.60137169 -8.88671875 360.62109375 C-8.76520447 361.48849182 -8.64369019 362.35588989 -8.51849365 363.24957275 C-1.93747061 410.56390297 -4.11988167 450.16140386 -32.26171875 490.37109375 C-34.23249218 492.9528442 -36.24492055 495.46554441 -38.3515625 497.9375 C-40.34121345 500.33175742 -40.34121345 500.33175742 -41.765625 503.1484375 C-48.27023828 514.57461361 -60.87091005 516.77679576 -72.76269531 520.06201172 C-117.1834608 531.73468898 -164.85762217 524.58067308 -208.26171875 512.37109375 C-208.99777344 512.1709668 -209.73382812 511.97083984 -210.4921875 511.76464844 C-218.63030949 509.55185432 -218.63030949 509.55185432 -221.26171875 508.37109375 C-222.24501805 505.42119584 -222.38834498 503.5095915 -222.39111328 500.43505859 C-222.39426544 499.42905609 -222.3974176 498.42305359 -222.40066528 497.38656616 C-222.39864105 496.29606964 -222.39661682 495.20557312 -222.39453125 494.08203125 C-222.39548798 492.95020416 -222.3964447 491.81837708 -222.39743042 490.6522522 C-222.39811205 488.24635767 -222.39625894 485.84046132 -222.39208984 483.43457031 C-222.38681065 479.80920076 -222.39199901 476.18395908 -222.3984375 472.55859375 C-222.40165067 460.12682755 -222.22582282 447.76828616 -221.26171875 435.37109375 C-217.86878456 437.01533772 -214.92808752 438.97381393 -211.82421875 441.12109375 C-196.18193332 451.46765436 -176.63642112 461.46405177 -158.26171875 465.37109375 C-157.27977539 465.58024414 -156.29783203 465.78939453 -155.28613281 466.00488281 C-126.67027182 471.90601226 -97.9720869 474.12734158 -68.88671875 471.05859375 C-67.18346436 470.88227417 -67.18346436 470.88227417 -65.44580078 470.70239258 C-52.92854827 469.2398347 -43.3056075 464.98457864 -35.19921875 454.93359375 C-33.00650549 451.59085606 -32.63317829 448.43065798 -32.5 444.484375 C-32.26171875 442.37109375 -32.26171875 442.37109375 -31.28491211 440.65966797 C-9.57560341 392.10250745 -36.62380582 296.05065042 -48.76171875 246.37109375 C-49.00978271 245.34153564 -49.25784668 244.31197754 -49.51342773 243.2512207 C-54.27336253 224.52006483 -61.78409129 207.45911711 -70.44921875 190.24609375 C-71.93388682 187.27530372 -73.41509161 184.30285124 -74.89241028 181.32839966 C-75.80134697 179.50050935 -76.71480022 177.67485439 -77.63383484 175.85202026 C-85.26171875 160.58705391 -85.26171875 160.58705391 -85.26171875 155.37109375 C-86.25171875 155.04109375 -87.24171875 154.71109375 -88.26171875 154.37109375 C-89.29932778 119.56330152 -83.0927293 78.96170619 -61.26171875 50.37109375 C-60.32585937 49.12779297 -60.32585937 49.12779297 -59.37109375 47.859375 C-54.63264442 41.76841552 -49.53378044 36.00299457 -44.26171875 30.37109375 C-43.36710937 29.41074219 -42.4725 28.45039062 -41.55078125 27.4609375 C-31.97550655 17.40795882 -21.20553704 9.30532764 -9.07421875 2.55859375 C-8.13872192 2.02443848 -8.13872192 2.02443848 -7.18432617 1.47949219 C-2.87535236 -0.79953667 -2.87535236 -0.79953667 0 0 Z " fill="#000000" transform="translate(1537.26171875,527.62890625)"/>
<path d="M0 0 C0.90202148 0.38369751 0.90202148 0.38369751 1.82226562 0.77514648 C17.07638382 7.24488728 32.44168467 13.30112083 48 19 C45.73563567 21.42933299 43.35252919 23.19796131 40.5703125 25.00390625 C39.26320313 25.85976318 39.26320313 25.85976318 37.9296875 26.73291016 C37.00414062 27.3366748 36.07859375 27.94043945 35.125 28.5625 C18.9325457 39.26305022 3.31525836 50.83278707 -9 66 C-9.89941705 67.06407479 -10.79919034 68.12784851 -11.69921875 69.19140625 C-35.99291557 98.27808744 -51.74694316 135.11033537 -64.74334717 170.40618896 C-69.78965075 184.07493751 -75.32469448 196.18189208 -84 208 C-85.18286668 209.65714179 -86.36513682 211.31470952 -87.546875 212.97265625 C-98.68741334 228.44919797 -110.50984624 244.15772696 -125.20703125 256.4609375 C-127.06980565 258.05992032 -128.78189537 259.74714718 -130.5 261.5 C-133.42434105 264.46359395 -136.45547801 267.2365154 -139.61328125 269.94921875 C-141.39388861 271.47920052 -143.15982018 273.02629336 -144.91796875 274.58203125 C-157.88820904 285.98834523 -171.81272481 296.16691898 -186 306 C-186.66 305.67 -187.32 305.34 -188 305 C-186.64068359 303.56720703 -186.64068359 303.56720703 -185.25390625 302.10546875 C-168.81327478 284.69614369 -153.58333867 266.03902842 -142 245 C-141.53352051 244.15985352 -141.06704102 243.31970703 -140.58642578 242.45410156 C-126.85902843 217.5392943 -113.85936908 188.31297303 -115.16796875 159.15234375 C-116.39419924 130.79845272 -101.6671161 104.40591812 -84 83 C-83.49823242 82.39075684 -82.99646484 81.78151367 -82.47949219 81.15380859 C-74.02212358 70.9641751 -65.18026337 61.01486543 -55.71655273 51.74853516 C-53.98910885 49.98890592 -52.38465232 48.16590853 -50.78125 46.29296875 C-47.09204267 42.05494568 -43.22471511 38.03237557 -39.25 34.0625 C-38.5489917 33.36229736 -37.8479834 32.66209473 -37.12573242 31.94067383 C-32.51571407 27.38456146 -27.8167532 23.15917446 -22.72265625 19.1484375 C-19.50238744 16.60733586 -16.37502593 13.96915265 -13.25 11.3125 C-12.73091064 10.87252686 -12.21182129 10.43255371 -11.67700195 9.97924805 C-7.7726879 6.66681634 -3.88519681 3.33481804 0 0 Z " fill="#000000" transform="translate(785,877)"/>
<path d="M0 0 C5.48228986 3.904983 10.47324608 8.17827385 15.4375 12.71875 C17.85362973 14.86969476 20.32747461 16.8827045 22.875 18.875 C36.02526194 29.28050322 48.54103574 41.34475281 59.37109375 54.15625 C61.2780673 56.31474285 63.31212861 58.3027042 65.375 60.3125 C69.52788977 64.4089838 73.18643763 68.77695126 76.82421875 73.33203125 C78.76393001 75.71052818 80.7797522 77.94716375 82.875 80.1875 C93.38740898 91.97224419 101.28735406 105.77799787 108 120 C108.36174316 120.75619629 108.72348633 121.51239258 109.09619141 122.29150391 C114.5918736 134.13524937 115.66639504 144.81749444 115.84375 157.78125 C116.45461332 195.79574421 132.86577583 233.64832969 155 264 C155.46229004 264.64195312 155.92458008 265.28390625 156.40087891 265.9453125 C166.37780006 279.74977369 177.46098363 292.49088934 189 305 C185.68377018 305 185.07938998 304.61326484 182.48046875 302.76171875 C181.7951709 302.27711182 181.10987305 301.79250488 180.40380859 301.29321289 C179.67242676 300.76332764 178.94104492 300.23344238 178.1875 299.6875 C177.42775879 299.14279053 176.66801758 298.59808105 175.88525391 298.03686523 C163.36537252 288.99851121 151.53396887 279.26125506 140 269 C139.21471924 268.30366455 139.21471924 268.30366455 138.41357422 267.59326172 C134.53657394 264.13715711 130.75103266 260.59218506 127 257 C126.20754883 256.24154785 125.41509766 255.4830957 124.59863281 254.70166016 C113.57464592 244.08209141 103.23537244 233.40979058 94.36279297 220.9140625 C93.05758622 219.08088069 91.72420289 217.27263587 90.37890625 215.46875 C88.2711619 212.62355967 86.23570926 209.73694089 84.24023438 206.81201172 C83.40248929 205.58804636 82.55452357 204.37102334 81.69726562 203.16064453 C74.40091228 192.76200956 69.79035596 181.76562714 65.5078125 169.87716675 C51.67751488 131.51125934 33.86522256 92.63395688 6.13671875 62.36328125 C4.27687125 60.30622871 2.51393198 58.20099532 0.75 56.0625 C-12.26904433 41.27215712 -30.31684754 30.17825356 -47 20 C-44.51182607 17.51182607 -42.32828907 16.86084992 -39.0234375 15.64453125 C-37.80164795 15.18989502 -36.5798584 14.73525879 -35.32104492 14.2668457 C-34.67557709 14.02906403 -34.03010925 13.79128235 -33.36508179 13.54629517 C-22.08132446 9.38567894 -10.92452665 5.04076584 0 0 Z " fill="#000000" transform="translate(1134,877)"/>
<path d="M0 0 C3 1 3 1 4.15991211 3.24291992 C4.52866455 4.22881104 4.89741699 5.21470215 5.27734375 6.23046875 C5.70152588 7.33197266 6.12570801 8.43347656 6.56274414 9.56835938 C7.01641357 10.76267578 7.47008301 11.95699219 7.9375 13.1875 C15.15869173 31.44010218 24.40521891 47.92619509 35.25 64.25 C35.62609406 64.81654297 36.00218811 65.38308594 36.38967896 65.96679688 C46.34550394 81.98742478 46.34550394 81.98742478 59.60327148 95.07763672 C61.87392151 98.20280685 61.03120623 101.56688731 60.671875 105.23046875 C60.53032672 106.97948991 60.38880797 108.72851347 60.24731445 110.47753906 C60.12533188 111.87220398 60.12533188 111.87220398 60.00088501 113.29504395 C58.42718022 131.43830387 57.61712438 149.54353587 57.3125 167.75 C57.29417114 168.82035492 57.27584229 169.89070984 57.25695801 170.99349976 C57.15679806 176.99552093 57.07153275 182.99757207 57 189 C55.0804396 188.23640129 53.16445288 187.46381522 51.25 186.6875 C50.18265625 186.25824219 49.1153125 185.82898438 48.015625 185.38671875 C43.69740452 183.40100856 41.48889607 182.27544811 39.76171875 177.76953125 C39.39343325 176.45333579 39.03600298 175.13407117 38.6875 173.8125 C31.34176733 148.55490063 16.86580806 128.57909539 -0.8046875 109.40625 C-2.63194716 107.40341735 -4.40903258 105.37260364 -6.18066406 103.32104492 C-9.75761884 99.23032715 -13.48536843 95.3209647 -17.3046875 91.45703125 C-17.9869339 90.7667131 -18.6691803 90.07639496 -19.37210083 89.36515808 C-20.8110502 87.91247253 -22.25149132 86.46126324 -23.69335938 85.01147461 C-25.13443677 83.5589473 -26.57105979 82.10198555 -28.00292969 80.64038086 C-37.44613281 71.00198913 -47.15979422 62.36332884 -58.07060242 54.41789246 C-61.27625322 52.06209595 -64.4171481 49.62286336 -67.5625 47.1875 C-68.62609379 46.36821911 -69.68987458 45.54918088 -70.75390625 44.73046875 C-71.49511719 44.15941406 -72.23632812 43.58835937 -73 43 C-69.89590886 40.51227478 -66.69930924 38.72982214 -63.14453125 36.953125 C-61.97680176 36.36297607 -60.80907227 35.77282715 -59.60595703 35.16479492 C-58.98771057 34.85319427 -58.36946411 34.54159363 -57.73248291 34.22055054 C-39.27688378 24.8912531 -21.13565459 14.79538949 -4.32275391 2.70385742 C-2.6953125 1.5625 -2.6953125 1.5625 0 0 Z " fill="#000000" transform="translate(1214,832)"/>
<path d="M0 0 C5.28 0.33 10.56 0.66 16 1 C13.76730769 7.69807692 13.76730769 7.69807692 12.37109375 11.01171875 C-2.39534223 46.62783771 -11.69669189 80.93728096 -7.71633911 119.64752197 C-4.51166531 151.71776727 -5.70952781 183.12903782 -9.25305176 215.10842896 C-10.02119146 222.06314734 -10.65563792 229.02299991 -11.1875 236 C-11.26540771 237.01384766 -11.34331543 238.02769531 -11.42358398 239.07226562 C-11.87211401 245.26793346 -12.14104507 251.45659081 -12.3359375 257.66503906 C-13.54022552 295.72748832 -26.05523747 329.17088408 -43 363 C-44.33141647 359.00575058 -43.2670807 357.42438195 -41.8125 353.5 C-39.67927452 347.47206728 -38.06018648 341.44555256 -36.75 335.1875 C-36.58733643 334.424375 -36.42467285 333.66125 -36.25708008 332.875 C-31.83211578 311.05300101 -33.84965738 288.8382034 -37 267 C-37.11124207 266.22799255 -37.22248413 265.45598511 -37.33709717 264.6605835 C-37.84305519 261.15337642 -38.35029271 257.64635568 -38.85823059 254.13943481 C-47.73959621 192.81184816 -50.22639616 131.22649521 -31.68798828 71.25 C-31.0853848 69.27924282 -30.52183005 67.29663232 -29.96484375 65.3125 C-26.31661919 53.10551288 -20.32502758 41.87160971 -14.70751953 30.47998047 C-12.03247754 25.02815769 -9.42283338 19.54552068 -6.8125 14.0625 C-5.92366517 12.19898587 -5.0343818 10.33568557 -4.14453125 8.47265625 C-3.77690674 7.70187744 -3.40928223 6.93109863 -3.03051758 6.13696289 C-2.03951969 4.08195116 -1.02030878 2.04061756 0 0 Z " fill="#000000" transform="translate(917,915)"/>
<path d="M0 0 C44.24343094 87.25024425 52.01124807 167.94234598 37.42529297 264.48950195 C37.27370728 265.49784088 37.12212158 266.50617981 36.96594238 267.54507446 C36.68164062 269.43101474 36.39452498 271.31653415 36.10388184 273.20150757 C31.79967286 301.7180548 33.94655516 328.47546064 42.40332031 355.95703125 C43.08258399 358.28275891 43.59852142 360.61071283 44 363 C31.17355008 346.63537732 24.47195144 322.93398979 18.625 303.25 C18.39844727 302.50878906 18.17189453 301.76757812 17.93847656 301.00390625 C13.72912234 286.09076556 12.62484442 270.58044583 12.14743042 255.16802979 C11.59737835 237.88852852 10.25614964 220.82591739 8.15220642 203.67037964 C6.45951246 189.86688679 5.76731449 176.26738426 5.75 162.375 C5.74766357 161.51248627 5.74532715 160.64997253 5.74291992 159.76132202 C5.72861571 145.60877207 6.48647184 131.63405671 7.93261719 117.55810547 C10.96836355 87.90519873 5.91331876 60.30523603 -3.9375 32.375 C-4.19021667 31.65624695 -4.44293335 30.9374939 -4.70330811 30.19696045 C-7.70066423 21.73105853 -10.97913068 13.55049803 -14.90063477 5.46337891 C-16 3 -16 3 -16 1 C-14.64648453 0.82812502 -13.29213367 0.66282742 -11.9375 0.5 C-10.80634766 0.36078125 -10.80634766 0.36078125 -9.65234375 0.21875 C-6.42775855 -0.04719517 -3.23400977 -0.03166717 0 0 Z " fill="#000000" transform="translate(1003,915)"/>
<path d="M0 0 C1.1031958 0.3297583 2.2063916 0.6595166 3.34301758 0.99926758 C6.60258903 1.89124858 8.42865626 2.17310867 11.6875 1.6875 C12.41324219 1.58824219 13.13898438 1.48898437 13.88671875 1.38671875 C15.95296495 1.00860715 17.96514848 0.51835389 20 0 C21.50077876 27.48083605 22.17029913 54.90897093 22.0546875 82.42578125 C22.04920842 83.89233249 22.04378927 85.35888396 22.03842926 86.82543564 C21.99015487 99.59662782 21.92007653 112.36770226 21.82497561 125.13863194 C21.75300658 134.83846439 21.69899394 144.53819028 21.6796875 154.23828125 C21.67748554 155.31758038 21.67748554 155.31758038 21.67523909 156.41868353 C21.63831453 180.75029996 22.79768215 204.79475241 25.75117874 228.95828629 C25.99733103 230.97809962 26.23515178 232.99871779 26.47006226 235.01986694 C27.74900573 246.79546546 27.74900573 246.79546546 30.078125 258.390625 C30.86606711 261.47561868 31.19681134 263.85101856 31 267 C25.45743985 270.09519593 20.35538546 272.80741549 13.80859375 271.59375 C8.72469384 270.14858048 5.22750134 267.93251901 1.41015625 264.3046875 C0.01283115 262.89009813 0.01283115 262.89009813 -2 262 C-2.34094238 260.24157715 -2.34094238 260.24157715 -2.47070312 257.91210938 C-2.52415894 257.03768188 -2.57761475 256.16325439 -2.63269043 255.2623291 C-2.68171509 254.299198 -2.73073975 253.33606689 -2.78125 252.34375 C-2.84026489 251.33582397 -2.89927979 250.32789795 -2.96008301 249.28942871 C-3.14909267 246.02672916 -3.32483523 242.76346931 -3.5 239.5 C-3.61759556 237.42312627 -3.73607648 235.34630247 -3.85546875 233.26953125 C-4.04067148 230.04279301 -4.22368406 226.81600564 -4.40013123 223.58877563 C-4.73737675 217.44085751 -5.1078882 211.29694865 -5.52368164 205.15380859 C-6.78413375 186.37523922 -7.4356168 167.66402935 -7.43726349 148.84267044 C-7.43742312 147.34591238 -7.43874761 145.84915405 -7.44115448 144.35239792 C-7.49262316 111.40009001 -5.5009553 78.6735138 -2.95942688 45.83203125 C-1.78302493 30.56628379 -0.87734932 15.28551526 0 0 Z " fill="#000000" transform="translate(1286,857)"/>
<path d="M0 0 C10.71445536 -0.20144344 21.22103851 0.32417821 31.875 1.4375 C32.69266846 1.52202423 33.51033691 1.60654846 34.3527832 1.69363403 C117.42667991 10.43809952 201.49901663 27.81857841 343 61 C344.17621084 84.90649532 344.15866612 108.80315336 344.12857056 132.73271561 C344.1249706 135.96389098 344.12337542 139.19506188 344.12231445 142.42623901 C344.10916579 174.62707177 343.8884607 206.80983999 343 239 C342.01 238.67 341.02 238.34 340 238 C335.08259025 237.76583763 332.35410199 237.70857649 328 240 C327.82612851 236.54199196 327.66239453 233.08356449 327.5 229.625 C327.45230469 228.67882812 327.40460938 227.73265625 327.35546875 226.7578125 C326.54841763 209.23327385 327.18564074 191.75442747 327.78317547 174.23393059 C328.55575277 151.53172949 329.20426684 128.84290927 329.1875 106.125 C329.1882251 105.16743805 329.1889502 104.2098761 329.18969727 103.22329712 C329.18899085 95.10404001 329.14751693 86.97749456 328.73828125 78.8671875 C328.69356689 77.9582373 328.64885254 77.04928711 328.6027832 76.11279297 C328.20896878 73.81232607 328.20896878 73.81232607 325.99194336 72.81738281 C325.33460205 72.54764648 324.67726074 72.27791016 324 72 C323.16113831 69.32209537 323.18233586 66.8262059 323 64 C322.29772781 64.18196426 321.59545563 64.36392853 320.87190247 64.55140686 C317.64242787 65.05585301 315.26438982 64.74982981 312.04956055 64.17749023 C310.8453093 63.96723709 309.64105804 63.75698395 308.40031433 63.5403595 C307.0623879 63.29677369 305.72452505 63.05283844 304.38671875 62.80859375 C302.95451483 62.55355397 301.52220443 62.29911159 300.08979797 62.04521179 C296.12740994 61.33944266 292.16759944 60.62007736 288.20831299 59.89713287 C285.67177234 59.43463229 283.13467389 58.97531146 280.59741211 58.51678467 C221.84328671 47.88703184 163.24315439 36.296188 104.765625 24.2421875 C103.87115158 24.05793339 102.97667816 23.87367928 102.05509949 23.68384171 C93.8357643 21.98997147 85.61778918 20.29013157 77.40570831 18.56140327 C51.7467237 13.16467258 25.97480447 8.60111506 0 5 C0 3.35 0 1.7 0 0 Z " fill="#000000" transform="translate(957,480)"/>
<path d="M0 0 C9.37037351 7.94906588 17.50964286 17.00649716 25.20556641 26.55419922 C26.01767578 27.53904297 26.82978516 28.52388672 27.66650391 29.53857422 C31.88161839 34.86141504 35.37460758 40.33523129 38.45556641 46.36669922 C38.76075195 46.95757324 39.0659375 47.54844727 39.38037109 48.15722656 C45.12628677 59.95033026 48.2326259 72.98326762 51.59609985 85.60610962 C59.9016606 116.63719939 69.46190991 146.84162904 81.74502563 176.53251648 C84.47606892 183.15506241 86.99776715 189.84867876 89.51806641 196.55419922 C100.93095747 226.50184578 117.06855 251.56893237 138.20556641 275.55419922 C134.27861718 275.55419922 133.3674339 274.31925659 130.39306641 271.80419922 C129.42240234 270.98693359 128.45173828 270.16966797 127.45166016 269.32763672 C126.92942871 268.88129883 126.40719727 268.43496094 125.86914062 267.97509766 C124.12491445 266.48531246 122.37082997 265.00770641 120.61572266 263.53076172 C111.7797208 256.06411625 103.7182217 248.36508593 96.20556641 239.55419922 C95.51374268 238.76529297 94.82191895 237.97638672 94.10913086 237.16357422 C88.52704651 230.62534764 84.46465936 224.04520974 80.76806641 216.30419922 C80.21368896 215.166521 79.65931152 214.02884277 79.08813477 212.85668945 C63.41672842 180.41012942 49.83283724 146.34481245 38.37744141 112.18310547 C32.46154342 94.5495058 26.24022795 77.36425309 18.20556641 60.55419922 C17.77216949 59.64130127 17.77216949 59.64130127 17.33001709 58.70996094 C15.42594692 54.70043464 13.49957958 50.70261175 11.54702759 46.71646118 C10.91660754 45.42832923 10.28931905 44.13865856 9.6656189 42.84725952 C5.38188349 34.01493135 0.37682309 26.20301081 -5.79443359 18.55419922 C-6.3587207 17.84980713 -6.92300781 17.14541504 -7.50439453 16.41967773 C-8.93119692 14.671177 -10.38300147 12.95056161 -11.85693359 11.24169922 C-12.3593457 10.65485352 -12.86175781 10.06800781 -13.37939453 9.46337891 C-16.79503538 5.53702882 -20.37083684 2.01833649 -24.46630859 -1.21142578 C-24.90458984 -1.61876953 -25.34287109 -2.02611328 -25.79443359 -2.44580078 C-25.79443359 -3.10580078 -25.79443359 -3.76580078 -25.79443359 -4.44580078 C-15.13686947 -8.64079942 -8.85328693 -7.13321976 0 0 Z " fill="#000000" transform="translate(1071.79443359375,911.44580078125)"/>
<path d="M0 0 C0.87269531 0.10828125 1.74539063 0.2165625 2.64453125 0.328125 C5.13879356 0.69883927 7.60610418 1.11434098 10.0625 1.6875 C8.56714511 5.34008817 6.50311392 7.23565579 3.5 9.75 C-10.59422299 22.1634464 -20.19525102 38.25823736 -28.375 54.9375 C-28.92883865 56.0588031 -28.92883865 56.0588031 -29.49386597 57.20275879 C-40.04349914 78.60445647 -47.9937549 100.6045696 -55.72271729 123.1439209 C-61.44700787 139.81106319 -67.75441535 156.12620871 -74.67095947 172.33129883 C-76.25003321 176.03566144 -77.77614079 179.75496665 -79.24609375 183.50390625 C-83.72916147 194.92465705 -88.81626032 206.00687971 -94.125 217.0625 C-94.46738708 217.78172638 -94.80977417 218.50095276 -95.16253662 219.24197388 C-98.80144716 226.86354388 -102.36707299 234.25260819 -107.9375 240.6875 C-109.04544922 241.98300781 -109.04544922 241.98300781 -110.17578125 243.3046875 C-110.86027344 244.04976562 -111.54476562 244.79484375 -112.25 245.5625 C-114.56471949 248.08975634 -116.8737997 250.61460233 -119.12890625 253.1953125 C-126.81132881 261.96344415 -135.35639747 269.54220906 -144.4375 276.8125 C-145.03715576 277.298396 -145.63681152 277.78429199 -146.25463867 278.28491211 C-150.58167536 281.6875 -150.58167536 281.6875 -153.9375 281.6875 C-153.40382813 281.11644531 -152.87015625 280.54539062 -152.3203125 279.95703125 C-126.34484677 251.68961266 -111.1635593 218.86510178 -97.73510742 183.31054688 C-92.95708542 170.66033816 -92.95708542 170.66033816 -90.5625 164.8671875 C-79.42193145 137.84720834 -71.55948913 109.32109535 -64.35961914 81.02880859 C-59.44286502 61.9436053 -51.9148465 45.73079193 -38.9375 30.6875 C-37.9377081 29.50352711 -36.93906518 28.31858327 -35.94140625 27.1328125 C-11.76614256 -1.50476091 -11.76614256 -1.50476091 0 0 Z " fill="#000000" transform="translate(863.9375,905.3125)"/>
<path d="M0 0 C0.33 0 0.66 0 1 0 C2.61538308 12.96626672 2.33798264 25.50335563 0.92382812 38.47924805 C-0.7031084 53.43375617 -1.28623161 68.20419992 -1.25 83.25 C-1.24895264 84.1859198 -1.24790527 85.1218396 -1.24682617 86.08612061 C-1.21599507 99.08228646 -0.75447784 112.02649034 0 125 C-9.00470092 113.46997791 -12.9454679 98.06217386 -16 84 C-16.20238281 83.07445312 -16.40476562 82.14890625 -16.61328125 81.1953125 C-20.12050394 52.21644222 -12.08892166 25.97832101 0 0 Z " fill="#000000" transform="translate(1002,996)"/>
<path d="M0 0 C3.56870435 4.43702547 5.32831304 9.29468491 7.375 14.5625 C7.97054687 16.09003906 7.97054687 16.09003906 8.578125 17.6484375 C18.29049234 43.13546684 21.81156421 69.46858011 14 96 C13.566875 97.57007813 13.566875 97.57007813 13.125 99.171875 C10.39933896 108.17629094 6.11626668 116.56764787 2 125 C1.67 125 1.34 125 1 125 C1.10393066 123.21287598 1.10393066 123.21287598 1.20996094 121.38964844 C1.91715555 108.67279117 2.23574768 95.98581778 2.25 83.25 C2.25233643 82.27975891 2.25467285 81.30951782 2.25708008 80.30987549 C2.27088039 64.97992534 1.33151356 49.99791765 -0.328125 34.76953125 C-1.57442936 23.09766253 -1.45050141 11.64280375 0 0 Z " fill="#000000" transform="translate(917,996)"/>
<path d="M0 0 C0.33 0 0.66 0 1 0 C1.17276627 2.52053642 1.33818538 5.04125335 1.5 7.5625 C1.54769531 8.24763672 1.59539062 8.93277344 1.64453125 9.63867188 C2.06705275 16.36883581 2.05024886 23.08656341 2.01013184 29.82791138 C1.99944814 32.11830994 1.99969127 34.4085531 2.00097656 36.69897461 C1.99942602 40.84901916 1.96031843 44.9975983 1.90234375 49.1472168 C1.88390349 50.86035006 1.87666457 52.57363575 1.87988281 54.28686523 C1.88273027 56.80045628 1.8476267 59.31104536 1.8046875 61.82421875 C1.8183284 62.96947273 1.8183284 62.96947273 1.83224487 64.13786316 C1.77294922 66.2956543 1.77294922 66.2956543 1 70 C-2.275211 72.86771842 -4.26385944 73.88376728 -8.5625 74.5625 C-11.93378758 74.01083476 -13.65392123 73.4215679 -15.98788452 70.91885376 C-18.39796816 66.34961423 -17.45833211 60.61352665 -17.26953125 55.60546875 C-17.24026047 54.30297684 -17.21098969 53.00048492 -17.18083191 51.65852356 C-17.10297864 48.20696327 -16.99461099 44.75701944 -16.87976074 41.30651855 C-16.76785509 37.78098276 -16.6849723 34.25477624 -16.59960938 30.72851562 C-16.42806084 23.81808074 -16.22424949 16.90892003 -16 10 C-13.0123291 10.10681152 -13.0123291 10.10681152 -10.0246582 10.21362305 C-7.6772767 10.14600923 -7.6772767 10.14600923 -5.1875 7.8125 C-3.22577804 5.29028605 -1.58276017 2.7698303 0 0 Z " fill="#000000" transform="translate(1304,778)"/>
<path d="M0 0 C2.4375 0.4296875 2.4375 0.4296875 4.61328125 2.859375 C5.34814451 3.99346931 6.05887161 5.1434229 6.75 6.3046875 C7.13244873 6.92674072 7.51489746 7.54879395 7.90893555 8.18969727 C20.97151446 30.08627247 28.35340791 55.02297584 22.4375 80.4296875 C20.63884044 77.73169815 19.72088403 75.44471453 18.73876953 72.39233398 C14.03109904 57.85973817 6.97204161 44.26247676 0.0234375 30.6953125 C-0.67225466 29.33613176 -1.36759154 27.97676909 -2.0625 26.6171875 C-2.38355713 25.9895752 -2.70461426 25.36196289 -3.03540039 24.71533203 C-5.42754828 19.93870543 -7.18981088 15.10525436 -8.67578125 9.98046875 C-9.64440588 7.19407279 -10.97026441 4.90501174 -12.5625 2.4296875 C-11.00133181 2.09017131 -9.43848662 1.75836206 -7.875 1.4296875 C-7.00488281 1.2440625 -6.13476562 1.0584375 -5.23828125 0.8671875 C-3.49161556 0.58160129 -1.74548955 0.2926888 0 0 Z " fill="#000000" transform="translate(1022.5625,911.5703125)"/>
<path d="M0 0 C4.59245057 0.29765883 8.35540004 0.98468563 12.390625 3.25390625 C11.524375 4.36765625 11.524375 4.36765625 10.640625 5.50390625 C8.7097489 8.38503466 7.74362852 11.13282744 6.76953125 14.453125 C4.34592137 21.91116693 0.82166577 28.66820344 -2.77853394 35.60778809 C-9.30272452 48.21071671 -15.29569552 60.70089251 -19.609375 74.25390625 C-20.27536891 76.25413038 -20.94177687 78.25421698 -21.609375 80.25390625 C-27.79606847 70.97386605 -25.15919553 54.79151346 -23.08764648 44.30883789 C-20.1597087 30.98873745 -14.34927957 19.02042032 -7.609375 7.25390625 C-7.20203125 6.41988281 -6.7946875 5.58585938 -6.375 4.7265625 C-4.73325708 1.72264882 -3.45794882 0.33647706 0 0 Z " fill="#000000" transform="translate(897.609375,911.74609375)"/>
<path d="M0 0 C7.42733504 4.21030569 11.44801194 10.50521581 13.875 18.5 C4.37841564 25.62243827 -7.65947853 25.81538061 -19.125 24.5 C-24.74463627 22.83859988 -29.38538867 20.08952299 -33.125 15.5 C-26.51553948 3.83624614 -13.8520969 -6.07878427 0 0 Z " fill="#000000" transform="translate(935.125,464.5)"/>
<path d="M0 0 C6.38028596 5.34818088 7.50267144 14.48086601 8.22021484 22.44384766 C8.82849841 33.60596086 8.64247953 44.51074353 2 54 C-5.81015682 45.2710012 -4.59082684 28.31551336 -4.13427734 17.265625 C-3.81102728 11.81151476 -3.34666515 6.30353312 -2 1 C-1.34 0.67 -0.68 0.34 0 0 Z " fill="#000000" transform="translate(1292,725)"/>
</svg>
